<svg xmlns="http://www.w3.org/2000/svg" version="1.1" width="48px" height="48px" style="shape-rendering:geometricPrecision; text-rendering:geometricPrecision; image-rendering:optimizeQuality; fill-rule:evenodd; clip-rule:evenodd" xmlns:xlink="http://www.w3.org/1999/xlink">
<g><path style="opacity:1" fill="#fcfdfd" d="M -0.5,-0.5 C 15.5,-0.5 31.5,-0.5 47.5,-0.5C 47.5,15.5 47.5,31.5 47.5,47.5C 31.5,47.5 15.5,47.5 -0.5,47.5C -0.5,31.5 -0.5,15.5 -0.5,-0.5 Z"/></g>
<g><path style="opacity:1" fill="#3b7ebd" d="M 28.5,8.5 C 36.4992,10.5199 39.1659,15.1865 36.5,22.5C 30.8333,22.5 25.1667,22.5 19.5,22.5C 19.5,20.5 19.5,18.5 19.5,16.5C 24.8782,16.5615 30.2115,16.7281 35.5,17C 30.4926,14.3861 25.1593,12.8861 19.5,12.5C 19.1667,11.8333 18.8333,11.1667 18.5,10.5C 21.9773,9.8328 25.3107,9.16613 28.5,8.5 Z"/></g>
<g><path style="opacity:1" fill="#1b3e65" d="M 13.5,11.5 C 13.4902,19.1646 13.1569,26.8313 12.5,34.5C 10.9778,33.8091 9.97777,32.6424 9.5,31C 10.8333,26 10.8333,21 9.5,16C 10.3147,14.0198 11.648,12.5198 13.5,11.5 Z"/></g>
<g><path style="opacity:1" fill="#19548e" d="M 28.5,8.5 C 25.3107,9.16613 21.9773,9.8328 18.5,10.5C 18.8333,11.1667 19.1667,11.8333 19.5,12.5C 25.1593,12.8861 30.4926,14.3861 35.5,17C 30.2115,16.7281 24.8782,16.5615 19.5,16.5C 19.5,18.5 19.5,20.5 19.5,22.5C 25.1667,22.5 30.8333,22.5 36.5,22.5C 36.5,23.1667 36.5,23.8333 36.5,24.5C 33.5,24.5 30.5,24.5 27.5,24.5C 27.5,26.5 27.5,28.5 27.5,30.5C 30.6967,30.5946 33.6967,29.9279 36.5,28.5C 36.8333,29.1667 37.1667,29.8333 37.5,30.5C 34.0585,31.193 30.7252,32.193 27.5,33.5C 24.8127,33.3359 22.146,33.5026 19.5,34C 17.256,35.8884 17.256,37.3884 19.5,38.5C 19.1667,38.5 18.8333,38.5 18.5,38.5C 15.733,38.1298 13.733,36.7964 12.5,34.5C 13.1569,26.8313 13.4902,19.1646 13.5,11.5C 17.921,7.55866 22.921,6.55866 28.5,8.5 Z"/></g>
<g><path style="opacity:1" fill="#4186c2" d="M 36.5,24.5 C 37.6857,25.7054 37.6857,27.0387 36.5,28.5C 33.6967,29.9279 30.6967,30.5946 27.5,30.5C 27.5,28.5 27.5,26.5 27.5,24.5C 30.5,24.5 33.5,24.5 36.5,24.5 Z"/></g>
<g><path style="opacity:1" fill="#246cb3" d="M 27.5,33.5 C 27.5,35.1667 27.5,36.8333 27.5,38.5C 24.8333,38.5 22.1667,38.5 19.5,38.5C 17.256,37.3884 17.256,35.8884 19.5,34C 22.146,33.5026 24.8127,33.3359 27.5,33.5 Z"/></g>
<g><path style="opacity:1" fill="#4b8ac1" d="M 37.5,30.5 C 36.3625,35.1063 33.3625,37.9396 28.5,39C 24.9733,39.8075 21.6399,39.6408 18.5,38.5C 18.8333,38.5 19.1667,38.5 19.5,38.5C 22.1667,38.5 24.8333,38.5 27.5,38.5C 27.5,36.8333 27.5,35.1667 27.5,33.5C 30.7252,32.193 34.0585,31.193 37.5,30.5 Z"/></g>
</svg>
