<svg version="1.0" xmlns="http://www.w3.org/2000/svg"
 width="1920.000000pt" height="1280.000000pt" viewBox="0 0 1920.000000 1280.000000"
 preserveAspectRatio="xMidYMid meet">

<g transform="translate(0.000000,1280.000000) scale(0.100000,-0.100000)"
fill="#000000" stroke="none">
<path d="M0 10223 l0 -2576 113 6 c131 7 275 41 383 92 212 98 404 294 493
505 56 130 71 203 86 405 17 227 36 308 109 460 86 180 210 324 370 430 167
110 321 160 541 175 247 16 305 28 445 88 125 53 214 114 316 216 192 193 275
393 294 709 13 219 36 318 108 462 155 311 445 528 780 586 104 17 166 19 731
19 650 0 736 4 938 49 275 60 572 200 798 376 176 137 397 381 483 534 l23 41
-3506 0 -3505 0 0 -2577z"/>
<path d="M7043 12783 c-22 -62 -168 -255 -281 -374 -294 -309 -668 -519 -1075
-603 -179 -37 -215 -39 -922 -46 -688 -6 -712 -7 -789 -28 -343 -95 -597 -321
-720 -639 -42 -108 -63 -219 -71 -381 -3 -68 -12 -155 -20 -192 -63 -300 -252
-557 -515 -702 -152 -84 -269 -115 -490 -128 -111 -7 -197 -19 -265 -35 -353
-87 -642 -369 -744 -725 -12 -41 -26 -131 -31 -200 -20 -243 -30 -313 -61
-404 -138 -415 -525 -703 -951 -708 l-108 -2 0 -3808 0 -3808 9600 0 9600 0 0
6400 0 6400 -6075 0 c-5777 0 -6076 -1 -6082 -17z m-2443 -4820 c14 -20 71
-95 128 -167 235 -299 343 -498 407 -747 37 -144 48 -264 35 -396 -16 -176
-45 -282 -115 -431 -85 -179 -183 -313 -338 -462 l-89 -85 -9 -125 c-14 -175
-12 -170 -58 -170 l-38 0 -7 54 c-3 30 -10 97 -16 150 l-10 95 -91 88 c-85 82
-204 223 -232 276 -7 12 -25 41 -39 64 -108 167 -178 416 -178 632 0 342 139
679 429 1035 32 39 84 106 115 149 32 42 64 77 70 77 6 0 22 -17 36 -37z
m1650 -1090 c51 -126 137 -334 190 -463 53 -129 114 -277 135 -328 36 -88 39
-92 51 -70 6 12 103 246 214 518 111 272 210 511 219 530 l17 35 173 3 172 2
-3 -37 c-3 -36 -5 -38 -43 -41 -80 -7 -75 37 -75 -622 0 -659 -5 -615 75 -622
38 -3 40 -5 43 -40 l3 -38 -200 0 -201 0 0 33 c0 31 4 35 40 46 26 8 44 20 49
34 4 12 5 254 2 537 l-6 515 -22 -55 c-12 -30 -37 -91 -56 -135 -18 -44 -95
-228 -171 -410 -264 -635 -238 -580 -277 -580 l-33 0 -88 210 c-49 116 -101
242 -117 280 -44 108 -239 572 -269 643 l-27 63 -3 -532 c-2 -498 -1 -534 15
-551 10 -9 32 -19 48 -21 27 -3 30 -8 33 -41 l3 -36 -173 2 -173 3 -3 32 c-3
30 -1 32 35 38 65 11 71 15 82 47 15 42 15 1151 1 1178 -7 13 -26 21 -60 26
-49 6 -50 7 -50 40 l0 34 178 0 179 0 93 -227z m6845 203 c198 -58 363 -203
442 -391 54 -127 66 -343 28 -490 -37 -146 -131 -285 -249 -371 -150 -109
-283 -136 -646 -132 l-255 3 -3 29 c-4 32 10 46 47 46 14 0 35 10 48 22 l23
21 0 582 c0 655 4 619 -75 631 -43 6 -45 8 -45 41 l0 35 313 -5 c257 -3 323
-7 372 -21z m1294 13 c207 -33 332 -164 333 -348 1 -112 -55 -206 -159 -268
-24 -14 -43 -26 -43 -28 0 -1 28 -13 62 -25 153 -56 229 -147 244 -293 16
-155 -64 -295 -211 -367 -115 -57 -152 -62 -501 -67 -177 -3 -338 -3 -358 1
-32 6 -36 10 -36 36 0 24 5 31 28 35 59 12 77 21 89 45 10 19 13 157 13 591 0
558 0 567 -21 593 -13 17 -34 28 -60 32 -36 6 -39 9 -39 40 l0 34 298 0 c163
0 326 -5 361 -11z m-6156 -384 c173 -36 319 -171 374 -345 13 -40 17 -87 17
-170 -1 -99 -4 -124 -27 -183 -41 -105 -87 -166 -174 -233 -48 -36 -57 -41
-148 -75 -71 -27 -234 -26 -325 1 -216 64 -350 251 -350 490 0 160 38 264 134
367 125 135 307 189 499 148z m1309 4 c69 -15 128 -50 176 -104 63 -71 65 -84
71 -456 7 -370 6 -369 67 -369 32 0 34 -2 34 -35 l0 -35 -124 0 c-67 0 -150
-3 -183 -6 -66 -7 -75 0 -66 49 5 23 10 27 39 27 62 0 64 9 64 335 0 159 -5
309 -10 333 -14 59 -53 118 -92 138 -48 25 -146 30 -205 10 -61 -20 -124 -73
-159 -132 -47 -80 -54 -129 -54 -394 0 -278 3 -290 66 -290 35 0 35 -1 32 -37
l-3 -38 -150 -3 c-82 -2 -165 0 -182 3 -30 5 -33 9 -33 40 0 33 2 35 32 35 17
0 40 7 50 17 17 15 18 40 18 369 l0 353 -22 15 c-12 9 -35 16 -50 16 -23 0
-28 4 -28 24 0 28 6 33 94 80 46 25 79 36 99 34 29 -3 32 -7 48 -71 9 -38 19
-71 22 -73 3 -3 27 18 53 46 27 29 67 62 89 75 84 49 202 66 307 44z m1105 -4
c50 -10 138 -15 246 -15 l167 0 0 -51 c0 -50 0 -51 -27 -45 -16 3 -64 8 -108
12 l-80 7 34 -39 c19 -21 45 -63 60 -93 22 -48 25 -70 26 -156 0 -85 -4 -107
-23 -146 -50 -100 -145 -180 -259 -220 -68 -23 -227 -26 -286 -5 l-38 14 -53
-71 -53 -72 271 -6 c307 -7 341 -13 425 -79 72 -57 94 -105 93 -205 -1 -102
-23 -150 -103 -227 -186 -179 -610 -198 -780 -36 -56 53 -79 106 -79 183 0 78
23 133 81 196 21 23 39 44 39 46 0 1 -14 3 -30 3 -36 0 -80 39 -80 70 0 29 11
48 93 158 l70 95 -26 19 c-35 25 -95 111 -114 162 -9 24 -16 76 -17 126 0 76
3 92 32 152 68 139 222 233 389 237 28 1 87 -6 130 -14z m1198 0 c38 -8 93
-27 122 -41 99 -48 212 -172 247 -270 24 -70 38 -180 31 -251 -18 -174 -103
-310 -249 -397 -84 -51 -154 -69 -264 -68 -157 1 -267 45 -368 146 -105 105
-146 213 -145 380 2 146 31 233 111 330 125 151 313 214 515 171z m3322 -772
c105 -50 91 -200 -21 -232 -113 -31 -204 74 -155 177 12 23 27 42 35 42 8 0
14 4 14 9 0 23 81 26 127 4z"/>
<path d="M4558 7030 c-3 -8 -16 -238 -27 -510 -12 -272 -24 -553 -27 -625 l-6
-130 31 -30 31 -29 32 32 32 31 -12 288 c-14 335 -41 902 -45 953 -2 21 -5 29
-9 20z"/>
<path d="M12771 6990 c-52 -22 -50 -7 -51 -593 l0 -548 25 -24 c22 -23 32 -25
116 -25 267 0 443 137 510 398 23 93 26 284 4 386 -40 191 -158 331 -324 386
-73 24 -242 36 -280 20z"/>
<path d="M14109 6993 c-71 -8 -74 -16 -77 -279 l-3 -234 154 0 c171 0 221 11
270 58 117 111 93 353 -43 422 -60 31 -189 45 -301 33z"/>
<path d="M14030 6117 l0 -255 26 -31 26 -31 150 0 c168 0 215 10 288 64 66 48
102 121 108 217 4 66 1 84 -20 130 -30 66 -68 105 -128 133 -40 19 -67 21
-247 24 l-203 3 0 -254z"/>
<path d="M8002 6592 c-148 -53 -222 -183 -222 -390 0 -144 23 -224 87 -309 56
-73 183 -122 285 -110 193 23 308 198 295 447 -9 166 -75 289 -186 346 -71 37
-181 43 -259 16z"/>
<path d="M10460 6601 c-81 -25 -149 -92 -171 -169 -22 -78 -16 -183 15 -246
61 -125 218 -177 343 -113 94 48 142 133 142 254 1 120 -57 220 -154 264 -41
19 -129 24 -175 10z"/>
<path d="M10330 5663 c-55 -47 -79 -102 -80 -176 0 -71 17 -114 60 -150 52
-45 98 -59 203 -65 117 -6 187 11 261 64 99 73 121 243 40 316 -46 40 -90 48
-268 48 l-172 0 -44 -37z"/>
<path d="M11645 6601 c-87 -22 -169 -93 -211 -185 -49 -108 -55 -275 -13 -404
50 -153 184 -244 336 -228 185 19 289 143 308 366 8 87 -4 170 -35 255 -31 82
-116 167 -191 189 -54 17 -142 19 -194 7z"/>
<path d="M15030 5902 c-25 -26 -30 -38 -30 -79 0 -30 7 -56 18 -69 74 -91 219
-25 198 90 -11 58 -35 78 -99 84 -52 4 -58 2 -87 -26z m114 -34 c8 -13 8 -23
0 -35 -9 -14 -8 -25 2 -45 12 -24 12 -28 1 -28 -8 0 -19 11 -25 25 -12 26 -32
34 -32 12 0 -7 5 -18 12 -25 9 -9 7 -12 -12 -12 -24 0 -25 3 -25 65 l0 66 34
-3 c19 -2 39 -11 45 -20z"/>
<path d="M15097 5874 c-15 -15 -7 -45 11 -42 9 2 17 12 17 22 0 20 -16 31 -28
20z"/>
</g>
</svg>
