<svg xmlns="http://www.w3.org/2000/svg" version="1.1" width="88px" height="88px" style="shape-rendering:geometricPrecision; text-rendering:geometricPrecision; image-rendering:optimizeQuality; fill-rule:evenodd; clip-rule:evenodd" xmlns:xlink="http://www.w3.org/1999/xlink">
<g><path style="opacity:1" fill="#001e2b" d="M -0.5,-0.5 C 28.8333,-0.5 58.1667,-0.5 87.5,-0.5C 87.5,28.8333 87.5,58.1667 87.5,87.5C 58.1667,87.5 28.8333,87.5 -0.5,87.5C -0.5,58.1667 -0.5,28.8333 -0.5,-0.5 Z"/></g>
<g><path style="opacity:1" fill="#00e662" d="M 42.5,17.5 C 44.371,17.8588 45.871,18.8588 47,20.5C 60.088,35.7945 59.4214,50.4612 45,64.5C 44,72.5 43,72.5 42,64.5C 32.4265,56.1145 29.0931,45.7812 32,33.5C 34.7645,27.6247 38.2645,22.2914 42.5,17.5 Z"/></g>
<g><path style="opacity:1" fill="#00a14e" d="M 44.5,46.5 C 43.8333,45.5 43.1667,44.5 42.5,43.5C 42.3359,40.8127 42.5026,38.146 43,35.5C 44.2367,39.0601 44.7367,42.7267 44.5,46.5 Z"/></g>
<g><path style="opacity:1" fill="#01563a" d="M 42.5,43.5 C 43.1667,44.5 43.8333,45.5 44.5,46.5C 44.5,49.1667 44.5,51.8333 44.5,54.5C 43.8333,53.5 43.1667,52.5 42.5,51.5C 42.5,48.8333 42.5,46.1667 42.5,43.5 Z"/></g>
<g><path style="opacity:1" fill="#01272d" d="M 42.5,51.5 C 43.1667,52.5 43.8333,53.5 44.5,54.5C 44.8174,57.5719 44.4841,60.5719 43.5,63.5C 42.5091,59.5546 42.1758,55.5546 42.5,51.5 Z"/></g>
</svg>
