<svg xmlns="http://www.w3.org/2000/svg" version="1.1" width="1920px" height="1280px" style="shape-rendering:geometricPrecision; text-rendering:geometricPrecision; image-rendering:optimizeQuality; fill-rule:evenodd; clip-rule:evenodd" xmlns:xlink="http://www.w3.org/1999/xlink">
<g><path style="opacity:1" fill="#fefefe" d="M -0.5,-0.5 C 639.5,-0.5 1279.5,-0.5 1919.5,-0.5C 1919.5,426.167 1919.5,852.833 1919.5,1279.5C 1279.5,1279.5 639.5,1279.5 -0.5,1279.5C -0.5,852.833 -0.5,426.167 -0.5,-0.5 Z"/></g>
<g><path style="opacity:1" fill="#3cb4e7" d="M 493.5,591.5 C 494.959,584.134 494.792,576.801 493,569.5C 490.605,567.056 488.438,564.39 486.5,561.5C 484.382,560.054 482.049,559.387 479.5,559.5C 479.5,558.5 479.5,557.5 479.5,556.5C 474.528,555.578 469.528,555.412 464.5,556C 462.792,557.062 462.126,558.229 462.5,559.5C 461.482,558.807 460.482,558.141 459.5,557.5C 464.36,552.157 470.026,547.657 476.5,544C 512.929,526.092 549.263,526.259 585.5,544.5C 592.443,548.777 599.11,553.444 605.5,558.5C 616.881,569.648 618.381,581.982 610,595.5C 602.621,602.629 593.787,605.129 583.5,603C 577.664,600.778 572.997,597.112 569.5,592C 547.682,576.399 524.682,574.399 500.5,586C 497.961,587.721 495.628,589.554 493.5,591.5 Z"/></g>
<g><path style="opacity:1" fill="#308bc4" d="M 493.5,591.5 C 489.897,593.763 486.564,596.43 483.5,599.5C 480.51,600.477 477.843,601.811 475.5,603.5C 465.494,604.33 457.161,600.996 450.5,593.5C 448.917,591.01 447.917,588.343 447.5,585.5C 446.167,581.5 446.167,577.5 447.5,573.5C 447.5,572.167 447.5,570.833 447.5,569.5C 450.494,564.506 454.494,560.506 459.5,557.5C 460.482,558.141 461.482,558.807 462.5,559.5C 462.126,558.229 462.792,557.062 464.5,556C 469.528,555.412 474.528,555.578 479.5,556.5C 479.5,557.5 479.5,558.5 479.5,559.5C 482.049,559.387 484.382,560.054 486.5,561.5C 488.438,564.39 490.605,567.056 493,569.5C 494.792,576.801 494.959,584.134 493.5,591.5 Z"/></g>
<g><path style="opacity:1" fill="#2d2d32" d="M 1343.5,615.5 C 1337.17,615.5 1330.83,615.5 1324.5,615.5C 1324.5,639.5 1324.5,663.5 1324.5,687.5C 1321.32,691.678 1316.99,693.344 1311.5,692.5C 1306.88,693.244 1303.05,691.91 1300,688.5C 1299.33,652.167 1299.33,615.833 1300,579.5C 1308.22,555.963 1324.72,546.796 1349.5,552C 1352.77,554.536 1354.1,557.869 1353.5,562C 1354.1,566.131 1352.77,569.464 1349.5,572C 1344.83,572.333 1340.17,572.667 1335.5,573C 1330.03,574.474 1326.53,577.974 1325,583.5C 1324.5,586.817 1324.33,590.15 1324.5,593.5C 1331.17,593.334 1337.84,593.5 1344.5,594C 1346.62,595.122 1348.46,596.622 1350,598.5C 1350.81,603.257 1350.48,607.924 1349,612.5C 1347.51,614.16 1345.68,615.16 1343.5,615.5 Z"/></g>
<g><path style="opacity:1" fill="#2c2c2d" d="M 986.5,574.5 C 986.5,580.5 986.5,586.5 986.5,592.5C 993.5,592.5 1000.5,592.5 1007.5,592.5C 1008.17,592.5 1008.5,592.833 1008.5,593.5C 1000.16,593.666 991.827,593.5 983.5,593C 981.348,590.918 980.681,591.084 981.5,593.5C 979.684,595.441 977.684,596.108 975.5,595.5C 979.157,593.061 978.491,591.728 973.5,591.5C 974.167,602.167 974.833,612.833 975.5,623.5C 973.5,623.5 971.5,623.5 969.5,623.5C 969.813,626.247 969.48,628.914 968.5,631.5C 967.808,628.064 966.808,624.73 965.5,621.5C 965.875,619.541 966.541,617.707 967.5,616C 966.256,615.544 965.423,616.044 965,617.5C 964.667,616.833 964.333,616.167 964,615.5C 964.782,620.632 964.449,625.966 963,631.5C 962.826,626.649 962.326,621.982 961.5,617.5C 961.333,602.163 961.5,586.83 962,571.5C 963.543,569.622 965.376,568.122 967.5,567C 971.833,566.333 976.167,566.333 980.5,567C 983.817,568.48 985.817,570.98 986.5,574.5 Z"/></g>
<g><path style="opacity:1" fill="#323232" d="M 1262.5,574.5 C 1261.51,579.975 1261.18,585.642 1261.5,591.5C 1258.29,591.012 1255.46,591.679 1253,593.5C 1252.29,592.027 1251.12,591.36 1249.5,591.5C 1248.83,595.5 1248.17,595.5 1247.5,591.5C 1245.83,591.5 1244.17,591.5 1242.5,591.5C 1241.91,597.303 1242.58,602.803 1244.5,608C 1243.67,610.167 1242.17,611.667 1240,612.5C 1239.46,614.135 1239.96,615.468 1241.5,616.5C 1240.27,617.59 1239.44,618.924 1239,620.5C 1238.83,605.328 1238.33,590.328 1237.5,575.5C 1238.98,569.528 1242.81,566.861 1249,567.5C 1255.39,566.553 1259.89,568.886 1262.5,574.5 Z"/></g>
<g><path style="opacity:1" fill="#9ac1ac" d="M 447.5,573.5 C 446.167,577.5 446.167,581.5 447.5,585.5C 446.206,583.952 445.539,581.952 445.5,579.5C 445.539,577.048 446.206,575.048 447.5,573.5 Z"/></g>
<g><path style="opacity:1" fill="#fdd861" d="M 447.5,569.5 C 447.5,570.833 447.5,572.167 447.5,573.5C 446.206,575.048 445.539,577.048 445.5,579.5C 445.539,581.952 446.206,583.952 447.5,585.5C 447.917,588.343 448.917,591.01 450.5,593.5C 457.161,600.996 465.494,604.33 475.5,603.5C 477.483,603.157 478.817,603.824 479.5,605.5C 477.621,609.725 475.287,613.725 472.5,617.5C 470.18,627.368 469.18,637.368 469.5,647.5C 468.964,650.698 469.631,653.365 471.5,655.5C 473.139,660.125 474.806,664.791 476.5,669.5C 478.876,671.627 479.876,674.293 479.5,677.5C 467.132,674.185 456.799,677.519 448.5,687.5C 447.189,691.78 446.189,696.113 445.5,700.5C 445.876,704.24 446.543,707.906 447.5,711.5C 446.265,711.279 445.265,710.612 444.5,709.5C 435.349,695.195 428.349,679.862 423.5,663.5C 424.036,660.302 423.369,657.635 421.5,655.5C 421.168,643.482 421.501,631.482 422.5,619.5C 423.553,614.096 424.886,608.763 426.5,603.5C 431.459,592.25 437.459,581.583 444.5,571.5C 445.265,570.388 446.265,569.721 447.5,569.5 Z"/></g>
<g><path style="opacity:1" fill="#b3b5b9" d="M 986.5,574.5 C 987.489,579.975 987.822,585.642 987.5,591.5C 994.354,591.176 1001.02,591.509 1007.5,592.5C 1000.5,592.5 993.5,592.5 986.5,592.5C 986.5,586.5 986.5,580.5 986.5,574.5 Z"/></g>
<g><path style="opacity:1" fill="#2d2e34" d="M 1262.5,574.5 C 1262.5,580.833 1262.5,587.167 1262.5,593.5C 1269.84,593.334 1277.17,593.5 1284.5,594C 1288.69,596.213 1290.36,599.713 1289.5,604.5C 1289.94,608.18 1288.94,611.347 1286.5,614C 1278.59,615.401 1270.59,615.901 1262.5,615.5C 1262.33,631.17 1262.5,646.837 1263,662.5C 1263.88,665.102 1265.38,667.269 1267.5,669C 1272.89,669.87 1278.22,670.87 1283.5,672C 1286.93,677.13 1287.43,682.63 1285,688.5C 1283.68,690.487 1281.85,691.654 1279.5,692C 1268.89,693.791 1258.89,692.124 1249.5,687C 1242.85,681.389 1239.01,674.222 1238,665.5C 1237.5,635.502 1237.33,605.502 1237.5,575.5C 1238.33,590.328 1238.83,605.328 1239,620.5C 1239.44,618.924 1240.27,617.59 1241.5,616.5C 1239.96,615.468 1239.46,614.135 1240,612.5C 1242.17,611.667 1243.67,610.167 1244.5,608C 1242.58,602.803 1241.91,597.303 1242.5,591.5C 1244.17,591.5 1245.83,591.5 1247.5,591.5C 1248.17,595.5 1248.83,595.5 1249.5,591.5C 1251.12,591.36 1252.29,592.027 1253,593.5C 1255.46,591.679 1258.29,591.012 1261.5,591.5C 1261.18,585.642 1261.51,579.975 1262.5,574.5 Z"/></g>
<g><path style="opacity:1" fill="#2c2d32" d="M 899.5,590.5 C 903.982,591.326 908.649,591.826 913.5,592C 907.271,592.055 901.271,593.222 895.5,595.5C 896.025,596.192 896.692,596.692 897.5,597C 896.027,597.71 895.36,598.876 895.5,600.5C 896.5,600.5 897.5,600.5 898.5,600.5C 898.5,601.5 898.5,602.5 898.5,603.5C 897.5,603.5 896.5,603.5 895.5,603.5C 895.012,606.711 895.679,609.544 897.5,612C 895.942,612.21 894.609,612.71 893.5,613.5C 885.486,616.682 879.986,622.348 877,630.5C 875.719,648.781 875.053,667.115 875,685.5C 873.833,688 872,689.833 869.5,691C 864.833,691.667 860.167,691.667 855.5,691C 853.622,689.457 852.122,687.624 851,685.5C 850.333,655.833 850.333,626.167 851,596.5C 852.167,594.667 853.667,593.167 855.5,592C 859.833,591.333 864.167,591.333 868.5,592C 873.469,594.153 875.802,597.986 875.5,603.5C 882.35,597.074 890.35,592.741 899.5,590.5 Z"/></g>
<g><path style="opacity:1" fill="#2e2f32" d="M 1213.5,604.5 C 1211.77,605.008 1211.43,605.841 1212.5,607C 1208.45,607.232 1204.45,607.732 1200.5,608.5C 1199.79,611.027 1199.12,613.527 1198.5,616C 1199.74,620.134 1199.74,624.301 1198.5,628.5C 1189.52,614.088 1177.52,610.922 1162.5,619C 1158.13,622.255 1155.13,626.422 1153.5,631.5C 1152.39,630.054 1152.22,628.387 1153,626.5C 1153.45,624.776 1154.28,624.109 1155.5,624.5C 1154.97,623.808 1154.31,623.308 1153.5,623C 1154.91,622.632 1155.91,621.799 1156.5,620.5C 1154.55,618.021 1153.05,615.354 1152,612.5C 1151.93,615.98 1151.76,619.647 1151.5,623.5C 1150.5,623.5 1149.5,623.5 1148.5,623.5C 1148.22,620.552 1148.56,617.719 1149.5,615C 1146.97,612.635 1144.63,610.135 1142.5,607.5C 1140.5,610.167 1138.17,612.5 1135.5,614.5C 1136.32,615.386 1137.32,615.719 1138.5,615.5C 1138.41,620.536 1137.91,625.536 1137,630.5C 1136.81,628.1 1136.31,625.766 1135.5,623.5C 1135.17,623.833 1134.83,624.167 1134.5,624.5C 1135.06,628.83 1136.06,632.996 1137.5,637C 1136.94,639.526 1136.27,642.026 1135.5,644.5C 1136.19,653.323 1136.36,662.323 1136,671.5C 1135.85,674.11 1135.02,676.444 1133.5,678.5C 1135.33,679.428 1135.67,680.594 1134.5,682C 1135.5,682.333 1136.5,682.667 1137.5,683C 1136.59,684.699 1136.26,686.533 1136.5,688.5C 1137.87,688.343 1139.21,688.51 1140.5,689C 1138.17,689.333 1135.83,689.667 1133.5,690C 1138.02,690.175 1142.35,690.675 1146.5,691.5C 1141.55,692.559 1136.55,692.726 1131.5,692C 1129.19,690.363 1127.69,688.196 1127,685.5C 1126.33,656.167 1126.33,626.833 1127,597.5C 1128.5,596 1130,594.5 1131.5,593C 1143.01,589.05 1149.67,592.883 1151.5,604.5C 1168.27,589.719 1186.6,587.553 1206.5,598C 1208.91,600.183 1211.24,602.35 1213.5,604.5 Z"/></g>
<g><path style="opacity:1" fill="#2c2e36" d="M 1117.5,647.5 C 1115.5,647.5 1113.5,647.5 1111.5,647.5C 1111.5,644.833 1111.5,642.167 1111.5,639.5C 1110.5,639.5 1109.5,639.5 1108.5,639.5C 1108.5,634.167 1108.5,628.833 1108.5,623.5C 1106.83,623.5 1105.17,623.5 1103.5,623.5C 1103.5,620.833 1103.5,618.167 1103.5,615.5C 1100.29,615.012 1097.46,615.679 1095,617.5C 1094.61,616.572 1093.95,615.905 1093,615.5C 1091.77,616.615 1090.6,616.615 1089.5,615.5C 1088.43,617.325 1089.1,618.492 1091.5,619C 1090.94,619.383 1090.61,619.883 1090.5,620.5C 1080.3,611.177 1068.64,609.011 1055.5,614C 1051.02,616.314 1047.36,619.48 1044.5,623.5C 1043.34,620.422 1041.84,620.088 1040,622.5C 1039.52,621.552 1039.35,620.552 1039.5,619.5C 1035.82,619.335 1032.15,619.501 1028.5,620C 1027.19,621.751 1027.52,623.251 1029.5,624.5C 1027.83,626.833 1025.83,628.833 1023.5,630.5C 1024.32,631.386 1025.32,631.719 1026.5,631.5C 1026.03,642.537 1025.36,653.537 1024.5,664.5C 1026.22,668.52 1028.22,672.354 1030.5,676C 1029.58,676.278 1028.92,676.778 1028.5,677.5C 1021.44,670.371 1017.27,661.704 1016,651.5C 1012.09,618.763 1025.93,598.263 1057.5,590C 1099.85,586.521 1119.85,605.687 1117.5,647.5 Z"/></g>
<g><path style="opacity:1" fill="#e0e0a4" d="M 483.5,599.5 C 483.646,602.554 482.313,604.554 479.5,605.5C 478.817,603.824 477.483,603.157 475.5,603.5C 477.843,601.811 480.51,600.477 483.5,599.5 Z"/></g>
<g><path style="opacity:1" fill="#292d35" d="M 1475.5,568.5 C 1481.59,568.139 1487.59,568.639 1493.5,570C 1494.7,570.903 1495.53,572.069 1496,573.5C 1496.67,611.5 1496.67,649.5 1496,687.5C 1494.75,690.381 1492.58,692.214 1489.5,693C 1485.17,693.667 1480.83,693.667 1476.5,693C 1474.43,692.052 1472.93,690.552 1472,688.5C 1471.33,650.167 1471.33,611.833 1472,573.5C 1473,571.677 1474.16,570.01 1475.5,568.5 Z"/></g>
<g><path style="opacity:1" fill="#292d36" d="M 1455.5,597.5 C 1456.66,627.428 1456.82,657.428 1456,687.5C 1455.49,688.527 1454.99,689.527 1454.5,690.5C 1449.05,692.51 1443.38,693.01 1437.5,692C 1435.67,691.5 1434.5,690.333 1434,688.5C 1433.08,685.899 1432.41,683.232 1432,680.5C 1415.15,695.782 1396.65,698.282 1376.5,688C 1366.39,679.611 1360.55,668.778 1359,655.5C 1358.83,646 1358.67,636.5 1358.5,627C 1358.36,616.739 1358.86,606.572 1360,596.5C 1360.9,595.299 1362.07,594.465 1363.5,594C 1369.28,593.097 1374.95,593.43 1380.5,595C 1381.33,595.833 1382.17,596.667 1383,597.5C 1383.05,617.218 1383.72,636.885 1385,656.5C 1390.26,668.547 1399.42,673.38 1412.5,671C 1421,667.833 1426.83,662 1430,653.5C 1431.11,634.833 1431.95,616.166 1432.5,597.5C 1435.5,594.046 1439.34,592.713 1444,593.5C 1446.5,593.667 1449,593.833 1451.5,594C 1453.32,594.66 1454.66,595.827 1455.5,597.5 Z"/></g>
<g><path style="opacity:1" fill="#2c2d34" d="M 1008.5,593.5 C 1010.37,593.859 1011.87,594.859 1013,596.5C 1013.67,600.833 1013.67,605.167 1013,609.5C 1011.89,611.815 1010.06,613.315 1007.5,614C 1000.51,614.5 993.508,614.666 986.5,614.5C 986.333,629.837 986.5,645.17 987,660.5C 987.73,664.896 990.23,667.73 994.5,669C 1007.64,667.135 1012.8,672.635 1010,685.5C 1008.83,688 1007,689.833 1004.5,691C 990.491,693.539 978.325,690.039 968,680.5C 964.606,675.317 962.606,669.65 962,663.5C 961.5,648.17 961.333,632.837 961.5,617.5C 962.326,621.982 962.826,626.649 963,631.5C 964.449,625.966 964.782,620.632 964,615.5C 964.333,616.167 964.667,616.833 965,617.5C 965.423,616.044 966.256,615.544 967.5,616C 966.541,617.707 965.875,619.541 965.5,621.5C 966.808,624.73 967.808,628.064 968.5,631.5C 969.48,628.914 969.813,626.247 969.5,623.5C 971.5,623.5 973.5,623.5 975.5,623.5C 974.833,612.833 974.167,602.167 973.5,591.5C 978.491,591.728 979.157,593.061 975.5,595.5C 977.684,596.108 979.684,595.441 981.5,593.5C 980.681,591.084 981.348,590.918 983.5,593C 991.827,593.5 1000.16,593.666 1008.5,593.5 Z"/></g>
<g><path style="opacity:1" fill="#282e37" d="M 1153.5,631.5 C 1152.85,633.086 1152.35,634.753 1152,636.5C 1151.67,653.5 1151.33,670.5 1151,687.5C 1149.95,689.384 1148.45,690.718 1146.5,691.5C 1142.35,690.675 1138.02,690.175 1133.5,690C 1135.83,689.667 1138.17,689.333 1140.5,689C 1139.21,688.51 1137.87,688.343 1136.5,688.5C 1136.26,686.533 1136.59,684.699 1137.5,683C 1136.5,682.667 1135.5,682.333 1134.5,682C 1135.67,680.594 1135.33,679.428 1133.5,678.5C 1135.02,676.444 1135.85,674.11 1136,671.5C 1136.36,662.323 1136.19,653.323 1135.5,644.5C 1136.27,642.026 1136.94,639.526 1137.5,637C 1136.06,632.996 1135.06,628.83 1134.5,624.5C 1134.83,624.167 1135.17,623.833 1135.5,623.5C 1136.31,625.766 1136.81,628.1 1137,630.5C 1137.91,625.536 1138.41,620.536 1138.5,615.5C 1137.32,615.719 1136.32,615.386 1135.5,614.5C 1138.17,612.5 1140.5,610.167 1142.5,607.5C 1144.63,610.135 1146.97,612.635 1149.5,615C 1148.56,617.719 1148.22,620.552 1148.5,623.5C 1149.5,623.5 1150.5,623.5 1151.5,623.5C 1151.76,619.647 1151.93,615.98 1152,612.5C 1153.05,615.354 1154.55,618.021 1156.5,620.5C 1155.91,621.799 1154.91,622.632 1153.5,623C 1154.31,623.308 1154.97,623.808 1155.5,624.5C 1154.28,624.109 1153.45,624.776 1153,626.5C 1152.22,628.387 1152.39,630.054 1153.5,631.5 Z"/></g>
<g><path style="opacity:1" fill="#f8f7fa" d="M 1090.5,620.5 C 1092.35,623.208 1093.35,626.208 1093.5,629.5C 1076.33,629.83 1059.33,629.497 1042.5,628.5C 1043.44,626.95 1044.11,625.284 1044.5,623.5C 1047.36,619.48 1051.02,616.314 1055.5,614C 1068.64,609.011 1080.3,611.177 1090.5,620.5 Z"/></g>
<g><path style="opacity:1" fill="#2c2b38" d="M 1117.5,647.5 C 1117.57,649.027 1116.91,650.027 1115.5,650.5C 1088.81,650.844 1066.15,650.51 1047.5,649.5C 1047.5,646.167 1047.5,642.833 1047.5,639.5C 1044.83,639.5 1042.17,639.5 1039.5,639.5C 1039.5,636.833 1039.5,634.167 1039.5,631.5C 1040.79,631.737 1041.79,631.404 1042.5,630.5C 1059.67,630.83 1076.67,630.497 1093.5,629.5C 1093.35,626.208 1092.35,623.208 1090.5,620.5C 1090.61,619.883 1090.94,619.383 1091.5,619C 1089.1,618.492 1088.43,617.325 1089.5,615.5C 1090.6,616.615 1091.77,616.615 1093,615.5C 1093.95,615.905 1094.61,616.572 1095,617.5C 1097.46,615.679 1100.29,615.012 1103.5,615.5C 1103.5,618.167 1103.5,620.833 1103.5,623.5C 1105.17,623.5 1106.83,623.5 1108.5,623.5C 1108.5,628.833 1108.5,634.167 1108.5,639.5C 1109.5,639.5 1110.5,639.5 1111.5,639.5C 1111.5,642.167 1111.5,644.833 1111.5,647.5C 1113.5,647.5 1115.5,647.5 1117.5,647.5 Z"/></g>
<g><path style="opacity:1" fill="#2a2e36" d="M 779.5,589.5 C 803.496,586.589 822.329,594.922 836,614.5C 846.795,637.542 844.129,658.875 828,678.5C 813.652,690.5 797.152,695 778.5,692C 759.073,686.906 746.573,674.739 741,655.5C 734.594,621.947 747.428,599.947 779.5,589.5 Z"/></g>
<g><path style="opacity:1" fill="#fafbfb" d="M 783.5,612.5 C 800.499,610.077 811.333,617.077 816,633.5C 819.113,658.565 808.279,670.399 783.5,669C 770.338,664.205 764.005,654.705 764.5,640.5C 764.584,626.776 770.918,617.442 783.5,612.5 Z"/></g>
<g><path style="opacity:1" fill="#292d36" d="M 899.5,590.5 C 926.944,588.778 943.111,601.445 948,628.5C 948.667,647.5 948.667,666.5 948,685.5C 947.226,687.939 945.726,689.773 943.5,691C 938.833,691.667 934.167,691.667 929.5,691C 927.714,690.215 926.214,689.049 925,687.5C 923.987,667.858 922.987,648.192 922,628.5C 916.391,616.278 906.891,611.278 893.5,613.5C 894.609,612.71 895.942,612.21 897.5,612C 895.679,609.544 895.012,606.711 895.5,603.5C 896.5,603.5 897.5,603.5 898.5,603.5C 898.5,602.5 898.5,601.5 898.5,600.5C 897.5,600.5 896.5,600.5 895.5,600.5C 895.36,598.876 896.027,597.71 897.5,597C 896.692,596.692 896.025,596.192 895.5,595.5C 901.271,593.222 907.271,592.055 913.5,592C 908.649,591.826 903.982,591.326 899.5,590.5 Z"/></g>
<g><path style="opacity:1" fill="#2a2f38" d="M 1213.5,604.5 C 1219.06,611.966 1222.73,620.3 1224.5,629.5C 1223.5,648.659 1223.17,667.993 1223.5,687.5C 1223.08,689.752 1221.75,691.252 1219.5,692C 1214.5,692.667 1209.5,692.667 1204.5,692C 1203,690.5 1201.5,689 1200,687.5C 1199.8,667.803 1199.3,648.136 1198.5,628.5C 1199.74,624.301 1199.74,620.134 1198.5,616C 1199.12,613.527 1199.79,611.027 1200.5,608.5C 1204.45,607.732 1208.45,607.232 1212.5,607C 1211.43,605.841 1211.77,605.008 1213.5,604.5 Z"/></g>
<g><path style="opacity:1" fill="#cfcfd2" d="M 1343.5,615.5 C 1337.69,616.49 1331.69,616.823 1325.5,616.5C 1325.83,640.339 1325.5,664.006 1324.5,687.5C 1324.5,663.5 1324.5,639.5 1324.5,615.5C 1330.83,615.5 1337.17,615.5 1343.5,615.5 Z"/></g>
<g><path style="opacity:1" fill="#ccced1" d="M 1455.5,597.5 C 1456.83,612.318 1457.5,627.485 1457.5,643C 1457.33,658.167 1457.17,673.333 1457,688.5C 1456.58,689.756 1455.75,690.423 1454.5,690.5C 1454.99,689.527 1455.49,688.527 1456,687.5C 1456.82,657.428 1456.66,627.428 1455.5,597.5 Z"/></g>
<g><path style="opacity:1" fill="#2b303b" d="M 1044.5,623.5 C 1044.11,625.284 1043.44,626.95 1042.5,628.5C 1041.17,629.167 1041.17,629.833 1042.5,630.5C 1041.79,631.404 1040.79,631.737 1039.5,631.5C 1039.5,634.167 1039.5,636.833 1039.5,639.5C 1042.17,639.5 1044.83,639.5 1047.5,639.5C 1047.5,642.833 1047.5,646.167 1047.5,649.5C 1066.15,650.51 1088.81,650.844 1115.5,650.5C 1091.01,651.498 1066.34,651.831 1041.5,651.5C 1044.54,662.701 1051.87,669.201 1063.5,671C 1074.07,671.923 1084.07,669.923 1093.5,665C 1095.5,664.333 1097.5,664.333 1099.5,665C 1102.67,668.167 1105.83,671.333 1109,674.5C 1110.3,676.365 1110.63,678.365 1110,680.5C 1085.64,697.886 1060.48,699.053 1034.5,684C 1032.24,681.917 1030.24,679.75 1028.5,677.5C 1028.92,676.778 1029.58,676.278 1030.5,676C 1028.22,672.354 1026.22,668.52 1024.5,664.5C 1025.36,653.537 1026.03,642.537 1026.5,631.5C 1025.32,631.719 1024.32,631.386 1023.5,630.5C 1025.83,628.833 1027.83,626.833 1029.5,624.5C 1027.52,623.251 1027.19,621.751 1028.5,620C 1032.15,619.501 1035.82,619.335 1039.5,619.5C 1039.35,620.552 1039.52,621.552 1040,622.5C 1041.84,620.088 1043.34,620.422 1044.5,623.5 Z"/></g>
<g><path style="opacity:1" fill="#797882" d="M 1042.5,628.5 C 1059.33,629.497 1076.33,629.83 1093.5,629.5C 1076.67,630.497 1059.67,630.83 1042.5,630.5C 1041.17,629.833 1041.17,629.167 1042.5,628.5 Z"/></g>
<g><path style="opacity:1" fill="#f4ebbd" d="M 469.5,647.5 C 471.369,649.635 472.036,652.302 471.5,655.5C 469.631,653.365 468.964,650.698 469.5,647.5 Z"/></g>
<g><path style="opacity:1" fill="#fbefc0" d="M 421.5,655.5 C 423.369,657.635 424.036,660.302 423.5,663.5C 421.631,661.365 420.964,658.698 421.5,655.5 Z"/></g>
<g><path style="opacity:1" fill="#2b2e36" d="M 687.5,589.5 C 702.382,587.479 716.382,589.979 729.5,597C 732.057,598.923 734.057,601.257 735.5,604C 732.388,610.779 727.555,615.945 721,619.5C 716.25,617.139 711.417,614.973 706.5,613C 688.761,610.457 677.927,617.957 674,635.5C 672.78,657.272 682.946,668.439 704.5,669C 710.769,667.368 716.602,664.868 722,661.5C 722.833,661.667 723.667,661.833 724.5,662C 729.27,666.43 733.603,671.097 737.5,676C 733.268,681.978 727.601,686.311 720.5,689C 701.079,695.158 683.079,692.491 666.5,681C 649.945,664.647 644.778,645.147 651,622.5C 657.756,605.232 669.922,594.232 687.5,589.5 Z"/></g>
<g><path style="opacity:1" fill="#2a2c32" d="M 1224.5,629.5 C 1225.61,648.142 1225.78,666.809 1225,685.5C 1224.72,686.416 1224.22,687.082 1223.5,687.5C 1223.17,667.993 1223.5,648.659 1224.5,629.5 Z"/></g>
<g><path style="opacity:1" fill="#f2cc89" d="M 479.5,677.5 C 481.483,677.157 482.817,677.824 483.5,679.5C 481.517,679.843 480.183,679.176 479.5,677.5 Z"/></g>
<g><path style="opacity:1" fill="#d4485e" d="M 479.5,677.5 C 480.183,679.176 481.517,679.843 483.5,679.5C 486.118,683.452 489.451,686.785 493.5,689.5C 493.666,695.176 493.499,700.843 493,706.5C 490.302,710.367 487.802,714.367 485.5,718.5C 482.331,720.513 479.331,722.68 476.5,725C 472.179,725.499 467.846,725.666 463.5,725.5C 456.932,722.267 451.599,717.6 447.5,711.5C 446.543,707.906 445.876,704.24 445.5,700.5C 446.189,696.113 447.189,691.78 448.5,687.5C 456.799,677.519 467.132,674.185 479.5,677.5 Z"/></g>
<g><path style="opacity:1" fill="#ed5c69" d="M 463.5,725.5 C 467.846,725.666 472.179,725.499 476.5,725C 479.331,722.68 482.331,720.513 485.5,718.5C 487.802,714.367 490.302,710.367 493,706.5C 493.499,700.843 493.666,695.176 493.5,689.5C 514.41,703.347 536.41,705.18 559.5,695C 566.081,690.353 572.414,685.353 578.5,680C 590.752,675.217 601.585,677.384 611,686.5C 616.826,695.748 616.993,705.082 611.5,714.5C 581.562,744.826 545.562,755.659 503.5,747C 493.435,743.796 483.768,739.796 474.5,735C 470.012,732.671 466.345,729.504 463.5,725.5 Z"/></g>
</svg>
