<svg xmlns="http://www.w3.org/2000/svg" version="1.1" width="88px" height="88px" style="shape-rendering:geometricPrecision; text-rendering:geometricPrecision; image-rendering:optimizeQuality; fill-rule:evenodd; clip-rule:evenodd" xmlns:xlink="http://www.w3.org/1999/xlink">
<g><path style="opacity:0.964" fill="#fefefe" d="M 36.5,1.5 C 61.6626,0.15357 77.8293,11.4869 85,35.5C 87.5723,60.8659 76.739,77.3659 52.5,85C 34.5842,88.144 20.0842,82.644 9,68.5C -0.963746,51.8605 -0.963746,35.1939 9,18.5C 16.2966,9.61141 25.4633,3.94474 36.5,1.5 Z"/></g>
<g><path style="opacity:1" fill="#57b7e2" d="M 37.5,32.5 C 38.0299,27.3617 35.6965,24.695 30.5,24.5C 34.6617,20.6681 39.6617,19.0014 45.5,19.5C 52.2673,19.4659 58.1006,21.7993 63,26.5C 65.4117,32.7599 63.245,35.5932 56.5,35C 50.7156,30.0879 44.3822,29.2546 37.5,32.5 Z"/></g>
<g><path style="opacity:1" fill="#1785b6" d="M 30.5,24.5 C 35.6965,24.695 38.0299,27.3617 37.5,32.5C 36.1283,33.5116 34.795,34.5116 33.5,35.5C 28.8333,35.5 26.5,33.1667 26.5,28.5C 27.5,26.8333 28.8333,25.5 30.5,24.5 Z"/></g>
<g><path style="opacity:1" fill="#fed762" d="M 26.5,28.5 C 26.5,33.1667 28.8333,35.5 33.5,35.5C 33.9382,35.4346 34.2716,35.6012 34.5,36C 30.6344,41.1337 30.6344,46.3004 34.5,51.5C 29.3178,51.0178 26.6511,53.3511 26.5,58.5C 22.7748,54.1335 21.1082,48.9669 21.5,43C 21.1066,37.3431 22.7732,32.5098 26.5,28.5 Z"/></g>
<g><path style="opacity:1" fill="#cf4c3b" d="M 34.5,51.5 C 35.1667,52.8333 36.1667,53.8333 37.5,54.5C 37.8058,60.5391 35.1392,62.8725 29.5,61.5C 28.1667,60.8333 27.1667,59.8333 26.5,58.5C 26.6511,53.3511 29.3178,51.0178 34.5,51.5 Z"/></g>
<g><path style="opacity:1" fill="#f05b55" d="M 29.5,61.5 C 35.1392,62.8725 37.8058,60.5391 37.5,54.5C 44.3952,58.9099 50.7286,58.0766 56.5,52C 60.7449,51.1232 63.4116,52.7898 64.5,57C 64.0097,58.982 63.0097,60.6487 61.5,62C 53.5635,67.6667 44.8968,69.0001 35.5,66C 33.2528,64.7225 31.2528,63.2225 29.5,61.5 Z"/></g>
</svg>
