<svg xmlns="http://www.w3.org/2000/svg" version="1.1" width="48px" height="48px" style="shape-rendering:geometricPrecision; text-rendering:geometricPrecision; image-rendering:optimizeQuality; fill-rule:evenodd; clip-rule:evenodd" xmlns:xlink="http://www.w3.org/1999/xlink">
<g><path style="opacity:1" fill="#1055c6" d="M -0.5,-0.5 C 15.5,-0.5 31.5,-0.5 47.5,-0.5C 47.5,15.5 47.5,31.5 47.5,47.5C 31.5,47.5 15.5,47.5 -0.5,47.5C -0.5,31.5 -0.5,15.5 -0.5,-0.5 Z"/></g>
<g><path style="opacity:1" fill="#adbff2" d="M 38.5,10.5 C 28.8333,10.5 19.1667,10.5 9.5,10.5C 9.5,11.8333 9.5,13.1667 9.5,14.5C 8.54885,13.0813 8.21552,11.4147 8.5,9.5C 18.6806,9.17265 28.6806,9.50598 38.5,10.5 Z"/></g>
<g><path style="opacity:1" fill="#f6f8fd" d="M 38.5,10.5 C 37.9084,13.1272 37.5751,15.7938 37.5,18.5C 31.31,18.1771 25.31,18.5104 19.5,19.5C 19.8333,22.1667 20.1667,24.8333 20.5,27.5C 25.3182,28.4244 28.9848,31.0911 31.5,35.5C 25.2015,36.4963 18.8682,36.8297 12.5,36.5C 11.6171,29.0925 10.6171,21.7592 9.5,14.5C 9.5,13.1667 9.5,11.8333 9.5,10.5C 19.1667,10.5 28.8333,10.5 38.5,10.5 Z"/></g>
<g><path style="opacity:1" fill="#1450b7" d="M 19.5,19.5 C 22.1667,19.5 24.8333,19.5 27.5,19.5C 27.4249,22.2062 27.0916,24.8728 26.5,27.5C 24.5,27.5 22.5,27.5 20.5,27.5C 20.1667,24.8333 19.8333,22.1667 19.5,19.5 Z"/></g>
<g><path style="opacity:1" fill="#8aaee6" d="M 36.5,19.5 C 36.2832,25.36 35.6165,31.0266 34.5,36.5C 34.6641,33.8127 34.4974,31.146 34,28.5C 31.8229,25.7787 30.3229,22.7787 29.5,19.5C 31.8333,19.5 34.1667,19.5 36.5,19.5 Z"/></g>
<g><path style="opacity:1" fill="#b2c8f0" d="M 19.5,19.5 C 25.31,18.5104 31.31,18.1771 37.5,18.5C 37.5,19.1667 37.1667,19.5 36.5,19.5C 34.1667,19.5 31.8333,19.5 29.5,19.5C 30.3229,22.7787 31.8229,25.7787 34,28.5C 34.4974,31.146 34.6641,33.8127 34.5,36.5C 27.1667,37.8333 19.8333,37.8333 12.5,36.5C 18.8682,36.8297 25.2015,36.4963 31.5,35.5C 28.9848,31.0911 25.3182,28.4244 20.5,27.5C 22.5,27.5 24.5,27.5 26.5,27.5C 27.0916,24.8728 27.4249,22.2062 27.5,19.5C 24.8333,19.5 22.1667,19.5 19.5,19.5 Z"/></g>
</svg>
