<svg xmlns="http://www.w3.org/2000/svg" version="1.1" width="88px" height="88px" style="shape-rendering:geometricPrecision; text-rendering:geometricPrecision; image-rendering:optimizeQuality; fill-rule:evenodd; clip-rule:evenodd" xmlns:xlink="http://www.w3.org/1999/xlink">
<g><path style="opacity:0.909" fill="#fd00d1" d="M 45.5,25.5 C 39.7403,26.878 34.7403,29.5446 30.5,33.5C 28.7697,34.0256 27.4363,35.0256 26.5,36.5C 25.1266,36.3433 23.7932,36.51 22.5,37C 18.6056,39.4458 14.6056,41.6124 10.5,43.5C 10.1718,38.1254 10.5052,32.7921 11.5,27.5C 26.5379,18.6334 41.7046,9.96672 57,1.5C 57.8299,7.19586 57.6632,12.8625 56.5,18.5C 52.5995,20.6081 48.9328,22.9415 45.5,25.5 Z"/></g>
<g><path style="opacity:0.928" fill="#01a8ec" d="M 53.5,30.5 C 61.0524,34.0416 68.3857,38.0416 75.5,42.5C 76.4948,47.7921 76.8282,53.1254 76.5,58.5C 71.4205,55.6279 66.0872,53.2945 60.5,51.5C 53.6676,46.9161 46.6676,42.5827 39.5,38.5C 43.5097,34.8242 48.1764,32.1575 53.5,30.5 Z"/></g>
<g><path style="opacity:1" fill="#076ea9" d="M 45.5,25.5 C 48.2028,27.1807 50.8695,28.8474 53.5,30.5C 48.1764,32.1575 43.5097,34.8242 39.5,38.5C 36.3388,37.0869 33.3388,35.4203 30.5,33.5C 34.7403,29.5446 39.7403,26.878 45.5,25.5 Z"/></g>
<g><path style="opacity:1" fill="#4b04a0" d="M 26.5,36.5 C 27.1667,37.1667 27.8333,37.8333 28.5,38.5C 23.8333,41.1667 19.1667,43.8333 14.5,46.5C 12.7697,45.9744 11.4363,44.9744 10.5,43.5C 14.6056,41.6124 18.6056,39.4458 22.5,37C 23.7932,36.51 25.1266,36.3433 26.5,36.5 Z"/></g>
<g><path style="opacity:0.926" fill="#8002fe" d="M 39.5,44.5 C 45.3668,47.5961 51.0334,50.9294 56.5,54.5C 56.8205,59.6946 56.4872,64.6946 55.5,69.5C 51.1168,66.6417 46.4501,64.3084 41.5,62.5C 35.9007,59.5624 30.5674,56.2291 25.5,52.5C 30.4174,50.3716 35.0841,47.7049 39.5,44.5 Z"/></g>
<g><path style="opacity:1" fill="#5b03be" d="M 28.5,38.5 C 30.674,38.7497 32.3406,39.7497 33.5,41.5C 29.6405,44.9301 25.3072,47.5968 20.5,49.5C 18.1815,49.0075 16.1815,48.0075 14.5,46.5C 19.1667,43.8333 23.8333,41.1667 28.5,38.5 Z"/></g>
<g><path style="opacity:1" fill="#6f01e1" d="M 33.5,41.5 C 35.8185,41.9925 37.8185,42.9925 39.5,44.5C 35.0841,47.7049 30.4174,50.3716 25.5,52.5C 23.326,52.2503 21.6594,51.2503 20.5,49.5C 25.3072,47.5968 29.6405,44.9301 33.5,41.5 Z"/></g>
<g><path style="opacity:1" fill="#044db2" d="M 60.5,51.5 C 66.0872,53.2945 71.4205,55.6279 76.5,58.5C 74.0911,61.2172 71.0911,63.2172 67.5,64.5C 65.0174,61.2586 61.6841,59.5919 57.5,59.5C 57.5,57.8333 57.5,56.1667 57.5,54.5C 58.3065,53.2719 59.3065,52.2719 60.5,51.5 Z"/></g>
<g><path style="opacity:0.869" fill="#0174ff" d="M 41.5,62.5 C 46.4501,64.3084 51.1168,66.6417 55.5,69.5C 55.5,70.1667 55.8333,70.5 56.5,70.5C 48.2425,76.7394 39.2425,81.7394 29.5,85.5C 29.1718,80.1254 29.5052,74.7921 30.5,69.5C 34.4005,67.3919 38.0672,65.0585 41.5,62.5 Z"/></g>
<g><path style="opacity:1" fill="#0165e1" d="M 57.5,59.5 C 61.6841,59.5919 65.0174,61.2586 67.5,64.5C 64.4512,66.8627 61.1178,68.8627 57.5,70.5C 57.5,66.8333 57.5,63.1667 57.5,59.5 Z"/></g>
<g><path style="opacity:1" fill="#3540f5" d="M 56.5,54.5 C 56.8333,54.5 57.1667,54.5 57.5,54.5C 57.5,56.1667 57.5,57.8333 57.5,59.5C 57.5,63.1667 57.5,66.8333 57.5,70.5C 57.1667,70.5 56.8333,70.5 56.5,70.5C 55.8333,70.5 55.5,70.1667 55.5,69.5C 56.4872,64.6946 56.8205,59.6946 56.5,54.5 Z"/></g>
</svg>
