<svg xmlns="http://www.w3.org/2000/svg" version="1.1" width="88px" height="88px" style="shape-rendering:geometricPrecision; text-rendering:geometricPrecision; image-rendering:optimizeQuality; fill-rule:evenodd; clip-rule:evenodd" xmlns:xlink="http://www.w3.org/1999/xlink">
<g><path style="opacity:0.99" fill="#212121" d="M 12.5,-0.5 C 33.5,-0.5 54.5,-0.5 75.5,-0.5C 77.7686,0.97576 80.1019,2.47576 82.5,4C 84.0303,6.35202 85.6969,8.51869 87.5,10.5C 87.5,32.5 87.5,54.5 87.5,76.5C 84.8333,81.1667 81.1667,84.8333 76.5,87.5C 54.5,87.5 32.5,87.5 10.5,87.5C 5.91978,84.3412 2.25311,80.3412 -0.5,75.5C -0.5,54.5 -0.5,33.5 -0.5,12.5C 2.16667,6.5 6.5,2.16667 12.5,-0.5 Z"/></g>
<g><path style="opacity:1" fill="#ece4d8" d="M 26.5,15.5 C 30.1667,15.5 33.8333,15.5 37.5,15.5C 37.1679,26.5202 37.5012,37.5202 38.5,48.5C 39.1067,48.3764 39.44,48.0431 39.5,47.5C 43.2882,42.5401 47.2882,37.7068 51.5,33C 55.8333,32.3333 60.1667,32.3333 64.5,33C 59.5625,38.0949 55.2291,43.5949 51.5,49.5C 55.9003,57.2952 60.5669,64.9619 65.5,72.5C 61.2047,73.6609 56.8713,73.8275 52.5,73C 49.6981,68.034 46.6981,63.2007 43.5,58.5C 41.8513,59.6477 40.3513,60.981 39,62.5C 38.5014,66.1516 38.3347,69.8183 38.5,73.5C 34.5,73.5 30.5,73.5 26.5,73.5C 26.5,54.1667 26.5,34.8333 26.5,15.5 Z"/></g>
<g><path style="opacity:1" fill="#b1aca4" d="M 26.5,15.5 C 30.2984,14.5166 34.2984,14.1832 38.5,14.5C 38.1721,25.6794 38.5054,36.6794 39.5,47.5C 39.44,48.0431 39.1067,48.3764 38.5,48.5C 37.5012,37.5202 37.1679,26.5202 37.5,15.5C 33.8333,15.5 30.1667,15.5 26.5,15.5 Z"/></g>
<g><path style="opacity:1" fill="#dc523f" d="M 55.5,14.5 C 62.5677,14.2614 65.7344,17.5947 65,24.5C 60.3333,31.1667 55.6667,31.1667 51,24.5C 50.3333,22.8333 50.3333,21.1667 51,19.5C 52.3657,17.6383 53.8657,15.9717 55.5,14.5 Z"/></g>
</svg>
