<?xml version="1.0" encoding="UTF-8"?>
<!DOCTYPE svg PUBLIC "-//W3C//DTD SVG 1.1//EN" "http://www.w3.org/Graphics/SVG/1.1/DTD/svg11.dtd">
<svg xmlns="http://www.w3.org/2000/svg" version="1.1" width="88px" height="88px" style="shape-rendering:geometricPrecision; text-rendering:geometricPrecision; image-rendering:optimizeQuality; fill-rule:evenodd; clip-rule:evenodd" xmlns:xlink="http://www.w3.org/1999/xlink">
<g><path style="opacity:0.966" fill="#f03e2f" d="M 33.5,-0.5 C 40.1667,-0.5 46.8333,-0.5 53.5,-0.5C 71.1667,4.5 82.5,15.8333 87.5,33.5C 87.5,40.1667 87.5,46.8333 87.5,53.5C 82.5,71.1667 71.1667,82.5 53.5,87.5C 46.8333,87.5 40.1667,87.5 33.5,87.5C 15.8333,82.5 4.5,71.1667 -0.5,53.5C -0.5,46.8333 -0.5,40.1667 -0.5,33.5C 4.5,15.8333 15.8333,4.5 33.5,-0.5 Z"/></g>
<g><path style="opacity:1" fill="#f79c94" d="M 33.5,34.5 C 29.6847,31.8726 27.6847,28.2059 27.5,23.5C 29.3974,20.4406 32.0641,18.2739 35.5,17C 44.0391,15.3256 51.8724,16.8256 59,21.5C 61.324,24.4799 62.824,27.8133 63.5,31.5C 57.8606,32.4795 53.1939,30.9795 49.5,27C 45.1667,25 40.8333,25 36.5,27C 34.253,28.995 33.253,31.495 33.5,34.5 Z"/></g>
<g><path style="opacity:1" fill="#fff8f7" d="M 27.5,23.5 C 27.6847,28.2059 29.6847,31.8726 33.5,34.5C 40.6099,37.2792 47.9432,39.4459 55.5,41C 64.8867,46.5519 66.8867,54.0519 61.5,63.5C 60.9496,58.7396 58.6163,55.0729 54.5,52.5C 47.8856,49.4643 40.8856,47.2976 33.5,46C 25.3901,41.9364 22.5567,35.4364 25,26.5C 25.3768,25.0577 26.2101,24.0577 27.5,23.5 Z"/></g>
<g><path style="opacity:1" fill="#f79a92" d="M 54.5,52.5 C 58.6163,55.0729 60.9496,58.7396 61.5,63.5C 56.9864,68.8439 51.1531,71.1772 44,70.5C 33.1318,70.7976 25.9652,65.7976 22.5,55.5C 26.5,54.1667 30.5,54.1667 34.5,55.5C 36.1201,59.8958 39.2867,61.8958 44,61.5C 50.7969,62.1967 54.2969,59.1967 54.5,52.5 Z"/></g>
</svg>
