<svg xmlns="http://www.w3.org/2000/svg" version="1.1" width="48px" height="48px" style="shape-rendering:geometricPrecision; text-rendering:geometricPrecision; image-rendering:optimizeQuality; fill-rule:evenodd; clip-rule:evenodd" xmlns:xlink="http://www.w3.org/1999/xlink">
<g><path style="opacity:0.009" fill="#000002" d="M 47.5,7.5 C 47.5,9.16667 47.5,10.8333 47.5,12.5C 46.5416,12.9528 45.7083,13.6195 45,14.5C 43.691,12.3136 43.5243,10.1469 44.5,8C 45.448,7.51722 46.448,7.35055 47.5,7.5 Z"/></g>
<g><path style="opacity:0.918" fill="#1e2a31" d="M 25.5,12.5 C 25.3284,13.4916 25.6618,14.1583 26.5,14.5C 26.3284,15.4916 26.6618,16.1583 27.5,16.5C 27.5,16.8333 27.5,17.1667 27.5,17.5C 27.1667,17.5 26.8333,17.5 26.5,17.5C 25.5489,18.9187 25.2155,20.5853 25.5,22.5C 25.1667,22.5 24.8333,22.5 24.5,22.5C 24.5,21.8333 24.1667,21.5 23.5,21.5C 23.5,20.8333 23.5,20.1667 23.5,19.5C 21.0882,19.3059 20.0882,17.9726 20.5,15.5C 19.209,15.2627 18.209,15.596 17.5,16.5C 17.1667,16.5 16.8333,16.5 16.5,16.5C 16.5,16.1667 16.5,15.8333 16.5,15.5C 16.3433,14.1266 16.51,12.7932 17,11.5C 18.7785,12.4791 20.4452,12.1458 22,10.5C 23.1127,11.305 24.2794,11.9717 25.5,12.5 Z"/></g>
<g><path style="opacity:0.417" fill="#263038" d="M 36.5,11.5 C 37.531,12.2485 38.6976,12.9152 40,13.5C 40.5281,14.816 40.0281,15.4827 38.5,15.5C 37.8333,14.1667 37.1667,14.1667 36.5,15.5C 35.1667,15.8333 35.1667,16.1667 36.5,16.5C 38.7727,16.9568 40.106,18.2901 40.5,20.5C 40.5,21.1667 40.5,21.8333 40.5,22.5C 39.8333,22.5 39.5,22.8333 39.5,23.5C 38.8333,23.5 38.5,23.8333 38.5,24.5C 36.5,24.5 34.5,24.5 32.5,24.5C 32.5,23.8333 32.1667,23.5 31.5,23.5C 31.5,22.8333 31.5,22.1667 31.5,21.5C 33.3547,21.728 34.1881,21.0613 34,19.5C 32.6123,19.2144 31.1123,19.5477 29.5,20.5C 29.8333,19.8333 30.1667,19.1667 30.5,18.5C 31.4916,18.6716 32.1583,18.3382 32.5,17.5C 32.5,16.5 32.5,15.5 32.5,14.5C 32.5,14.1667 32.5,13.8333 32.5,13.5C 33.6049,12.3995 34.9382,11.7329 36.5,11.5 Z"/></g>
<g><path style="opacity:0.005" fill="#050203" d="M 10.5,11.5 C 9.46905,12.2485 8.30238,12.9152 7,13.5C 6.47189,14.816 6.97189,15.4827 8.5,15.5C 8.5,15.8333 8.5,16.1667 8.5,16.5C 7.16667,16.5 5.83333,16.5 4.5,16.5C 4.19494,19.414 4.19494,22.0807 4.5,24.5C 4.5,24.8333 4.5,25.1667 4.5,25.5C 1.83333,26.8333 1.83333,28.1667 4.5,29.5C 4.29425,31.5492 3.46092,31.8825 2,30.5C 1.30813,25.1087 1.64147,19.7753 3,14.5C 4.67287,11.0708 7.17287,10.0708 10.5,11.5 Z"/></g>
<g><path style="opacity:0.008" fill="#080407" d="M 47.5,23.5 C 47.5,26.5 47.5,29.5 47.5,32.5C 46.5,32.5 45.5,32.5 44.5,32.5C 44.082,35.4389 42.582,37.7722 40,39.5C 38.6283,38.0899 37.795,36.4233 37.5,34.5C 38.8583,35.6256 40.1916,35.6256 41.5,34.5C 42.5401,32.4771 43.5401,30.4771 44.5,28.5C 44.3333,27.8333 44.1667,27.1667 44,26.5C 43.7679,27.7375 43.2679,28.7375 42.5,29.5C 42.5674,28.0413 42.2341,26.7079 41.5,25.5C 42.8333,25.1667 42.8333,24.8333 41.5,24.5C 41.1583,23.6618 40.4916,23.3284 39.5,23.5C 39.5,22.8333 39.8333,22.5 40.5,22.5C 41.8333,21.8333 41.8333,21.1667 40.5,20.5C 40.106,18.2901 38.7727,16.9568 36.5,16.5C 36.5,16.1667 36.5,15.8333 36.5,15.5C 37.1667,15.5 37.8333,15.5 38.5,15.5C 40.0281,15.4827 40.5281,14.816 40,13.5C 38.6976,12.9152 37.531,12.2485 36.5,11.5C 38.0744,11.0629 39.2411,10.0629 40,8.5C 41.9671,13.3703 43.4671,18.3703 44.5,23.5C 45.5,23.5 46.5,23.5 47.5,23.5 Z"/></g>
<g><path style="opacity:0.125" fill="#252e38" d="M 10.5,11.5 C 13.204,11.6696 14.8707,13.0029 15.5,15.5C 15.3243,19.2651 13.3243,21.2651 9.5,21.5C 9.5,22.5 9.5,23.5 9.5,24.5C 9.16667,24.5 8.83333,24.5 8.5,24.5C 8.16667,23.1667 7.83333,23.1667 7.5,24.5C 6.83333,24.5 6.16667,24.5 5.5,24.5C 5.92454,21.5525 6.92454,18.8859 8.5,16.5C 9.16667,16.5 9.5,16.1667 9.5,15.5C 9.16667,15.5 8.83333,15.5 8.5,15.5C 6.97189,15.4827 6.47189,14.816 7,13.5C 8.30238,12.9152 9.46905,12.2485 10.5,11.5 Z M 9.5,15.5 C 10.3864,14.2241 11.3864,14.2241 12.5,15.5C 11.7666,16.087 10.7666,16.087 9.5,15.5 Z"/></g>
<g><path style="opacity:1" fill="#23323d" d="M 32.5,13.5 C 31.1667,13.8333 31.1667,14.1667 32.5,14.5C 32.5,15.5 32.5,16.5 32.5,17.5C 31.0755,15.9689 30.4088,16.3023 30.5,18.5C 30.1667,19.1667 29.8333,19.8333 29.5,20.5C 29.5,20.8333 29.5,21.1667 29.5,21.5C 29.1667,22.1667 28.8333,22.8333 28.5,23.5C 28.5,24.1667 28.1667,24.5 27.5,24.5C 26.8333,24.5 26.1667,24.5 25.5,24.5C 25.5,23.8333 25.5,23.1667 25.5,22.5C 25.2155,20.5853 25.5489,18.9187 26.5,17.5C 26.8333,18.8333 27.1667,18.8333 27.5,17.5C 27.5,17.1667 27.5,16.8333 27.5,16.5C 29.0311,15.0755 28.6977,14.4088 26.5,14.5C 26.6716,13.5084 26.3382,12.8417 25.5,12.5C 25.369,11.7611 25.5357,11.0944 26,10.5C 28.33,12.0317 30.33,11.6983 32,9.5C 32.49,10.7932 32.6567,12.1266 32.5,13.5 Z"/></g>
<g><path style="opacity:1" fill="#2a3443" d="M 15.5,15.5 C 15.8333,15.5 16.1667,15.5 16.5,15.5C 16.5,15.8333 16.5,16.1667 16.5,16.5C 16.8333,21.8333 17.1667,21.8333 17.5,16.5C 18.209,15.596 19.209,15.2627 20.5,15.5C 20.0882,17.9726 21.0882,19.3059 23.5,19.5C 23.5,20.1667 23.5,20.8333 23.5,21.5C 22.8333,21.5 22.5,21.8333 22.5,22.5C 21.9473,24.5518 20.9473,24.8852 19.5,23.5C 18.2601,21.0155 17.2601,21.0155 16.5,23.5C 15.609,24.1098 14.609,24.4431 13.5,24.5C 13.1667,23.1667 12.8333,23.1667 12.5,24.5C 11.5,24.5 10.5,24.5 9.5,24.5C 9.5,23.5 9.5,22.5 9.5,21.5C 13.3243,21.2651 15.3243,19.2651 15.5,15.5 Z M 19.5,23.5 C 18.5,23.5 17.5,23.5 16.5,23.5C 17.2601,21.0155 18.2601,21.0155 19.5,23.5 Z"/></g>
<g><path style="opacity:0.004" fill="#622f26" d="M 4.5,25.5 C 4.5,25.1667 4.5,24.8333 4.5,24.5C 4.83333,24.5 5.16667,24.5 5.5,24.5C 6.16667,24.5 6.83333,24.5 7.5,24.5C 9.84386,24.9397 11.8439,25.9397 13.5,27.5C 12.6618,27.8417 12.3284,28.5084 12.5,29.5C 12.1667,29.5 11.8333,29.5 11.5,29.5C 11.1583,28.6618 10.4916,28.3284 9.5,28.5C 9.5,27.8333 9.16667,27.5 8.5,27.5C 8.16667,27.5 7.83333,27.5 7.5,27.5C 7.5,26.8333 7.16667,26.5 6.5,26.5C 6.15829,25.6618 5.49162,25.3284 4.5,25.5 Z"/></g>
<g><path style="opacity:0.004" fill="#7a5b3b" d="M 4.5,25.5 C 4.5,25.8333 4.5,26.1667 4.5,26.5C 4.32842,27.4916 4.66175,28.1583 5.5,28.5C 5.5,28.8333 5.5,29.1667 5.5,29.5C 5.16667,29.5 4.83333,29.5 4.5,29.5C 1.83333,28.1667 1.83333,26.8333 4.5,25.5 Z"/></g>
<g><path style="opacity:0.014" fill="#06090f" d="M 29.5,21.5 C 30.1667,21.5 30.8333,21.5 31.5,21.5C 31.5,22.1667 31.5,22.8333 31.5,23.5C 32.1667,23.5 32.5,23.8333 32.5,24.5C 34.5,24.5 36.5,24.5 38.5,24.5C 38.5,24.8333 38.5,25.1667 38.5,25.5C 37.8333,25.5 37.1667,25.5 36.5,25.5C 36.1667,25.5 35.8333,25.5 35.5,25.5C 34.2438,25.4614 33.2438,25.9614 32.5,27C 26.0865,27.2068 19.7531,27.7068 13.5,28.5C 13.5,28.1667 13.5,27.8333 13.5,27.5C 11.8439,25.9397 9.84386,24.9397 7.5,24.5C 7.83333,24.5 8.16667,24.5 8.5,24.5C 8.83333,24.5 9.16667,24.5 9.5,24.5C 10.5,24.5 11.5,24.5 12.5,24.5C 12.8333,24.5 13.1667,24.5 13.5,24.5C 14.609,24.4431 15.609,24.1098 16.5,23.5C 17.5,23.5 18.5,23.5 19.5,23.5C 20.9473,24.8852 21.9473,24.5518 22.5,22.5C 23.1667,22.5 23.8333,22.5 24.5,22.5C 24.3284,23.4916 24.6618,24.1583 25.5,24.5C 26.1667,24.5 26.8333,24.5 27.5,24.5C 28.2506,25.5735 29.2506,25.7401 30.5,25C 29.9558,24.2828 29.2891,23.7828 28.5,23.5C 28.8333,22.8333 29.1667,22.1667 29.5,21.5 Z M 28.5,23.5 C 29.2891,23.7828 29.9558,24.2828 30.5,25C 29.2506,25.7401 28.2506,25.5735 27.5,24.5C 28.1667,24.5 28.5,24.1667 28.5,23.5 Z"/></g>
<g><path style="opacity:0.992" fill="#eb9d2e" d="M 39.5,23.5 C 40.4916,23.3284 41.1583,23.6618 41.5,24.5C 41.5,24.8333 41.5,25.1667 41.5,25.5C 42.2341,26.7079 42.5674,28.0413 42.5,29.5C 41.5207,30.7653 40.5207,32.0986 39.5,33.5C 38.7084,32.3002 38.7084,30.9669 39.5,29.5C 39.1667,28.1667 38.8333,28.1667 38.5,29.5C 38.1667,30.1667 37.8333,30.8333 37.5,31.5C 36.8333,31.5 36.5,31.8333 36.5,32.5C 34.5,32.8333 32.5,33.1667 30.5,33.5C 30.1667,33.5 29.8333,33.5 29.5,33.5C 29.5,32.1667 28.8333,31.5 27.5,31.5C 29.3736,30.7148 31.3736,30.0482 33.5,29.5C 33.8333,29.5 34.1667,29.5 34.5,29.5C 37.1667,29.1667 37.1667,28.8333 34.5,28.5C 34.3284,27.5084 34.6618,26.8417 35.5,26.5C 36.1667,26.5 36.5,26.1667 36.5,25.5C 37.1667,25.5 37.8333,25.5 38.5,25.5C 40.6977,25.5912 41.0311,24.9245 39.5,23.5 Z"/></g>
<g><path style="opacity:0.875" fill="#cc953e" d="M 4.5,26.5 C 5.16667,26.5 5.83333,26.5 6.5,26.5C 7.16667,26.5 7.5,26.8333 7.5,27.5C 7.83333,27.5 8.16667,27.5 8.5,27.5C 9.16667,27.5 9.5,27.8333 9.5,28.5C 10.4916,28.3284 11.1583,28.6618 11.5,29.5C 10.5084,29.3284 9.84171,29.6618 9.5,30.5C 8.16667,30.8333 8.16667,31.1667 9.5,31.5C 11.099,31.2322 12.4324,31.5655 13.5,32.5C 12.209,32.2627 11.209,32.596 10.5,33.5C 8.17369,32.8553 6.50702,31.522 5.5,29.5C 6.83333,29.1667 6.83333,28.8333 5.5,28.5C 4.66175,28.1583 4.32842,27.4916 4.5,26.5 Z"/></g>
<g><path style="opacity:0.008" fill="#522b1b" d="M 35.5,25.5 C 35.5,25.8333 35.5,26.1667 35.5,26.5C 34.6618,26.8417 34.3284,27.5084 34.5,28.5C 34.5,28.8333 34.5,29.1667 34.5,29.5C 34.1667,29.5 33.8333,29.5 33.5,29.5C 29.9779,28.588 26.3112,28.588 22.5,29.5C 20.1667,29.5 17.8333,29.5 15.5,29.5C 14.8333,29.5 14.1667,29.5 13.5,29.5C 13.5,29.1667 13.5,28.8333 13.5,28.5C 19.7531,27.7068 26.0865,27.2068 32.5,27C 33.2438,25.9614 34.2438,25.4614 35.5,25.5 Z"/></g>
<g><path style="opacity:0.017" fill="#280100" d="M 15.5,29.5 C 17.8333,29.5 20.1667,29.5 22.5,29.5C 22.5,30.1667 22.5,30.8333 22.5,31.5C 20.0479,30.9346 17.7146,30.2679 15.5,29.5 Z"/></g>
<g><path style="opacity:0.95" fill="#faa10e" d="M 11.5,29.5 C 11.8333,29.5 12.1667,29.5 12.5,29.5C 12.8333,29.5 13.1667,29.5 13.5,29.5C 14.1667,29.5 14.8333,29.5 15.5,29.5C 17.7146,30.2679 20.0479,30.9346 22.5,31.5C 24.1667,31.5 25.8333,31.5 27.5,31.5C 28.8333,31.5 29.5,32.1667 29.5,33.5C 24.5,33.5 19.5,33.5 14.5,33.5C 14.1667,33.5 13.8333,33.5 13.5,33.5C 13.5,33.1667 13.5,32.8333 13.5,32.5C 12.4324,31.5655 11.099,31.2322 9.5,31.5C 9.5,31.1667 9.5,30.8333 9.5,30.5C 9.84171,29.6618 10.5084,29.3284 11.5,29.5 Z"/></g>
<g><path style="opacity:0.014" fill="#2d0000" d="M 10.5,33.5 C 11.209,32.596 12.209,32.2627 13.5,32.5C 13.5,32.8333 13.5,33.1667 13.5,33.5C 12.7978,34.1157 11.7978,34.1157 10.5,33.5 Z"/></g>
<g><path style="opacity:0.282" fill="#a87a42" d="M 14.5,33.5 C 19.5,33.5 24.5,33.5 29.5,33.5C 29.8333,33.5 30.1667,33.5 30.5,33.5C 28.9448,34.6327 27.1114,35.2994 25,35.5C 21.6062,34.3403 18.2729,34.3403 15,35.5C 14.5357,34.9056 14.369,34.2389 14.5,33.5 Z"/></g>
<g><path style="opacity:0.008" fill="#785932" d="M 37.5,34.5 C 37.1667,33.8333 36.8333,33.1667 36.5,32.5C 37.1667,32.5 37.5,32.1667 37.5,31.5C 37.8333,30.8333 38.1667,30.1667 38.5,29.5C 38.8333,29.5 39.1667,29.5 39.5,29.5C 38.7084,30.9669 38.7084,32.3002 39.5,33.5C 40.5207,32.0986 41.5207,30.7653 42.5,29.5C 43.2679,28.7375 43.7679,27.7375 44,26.5C 44.1667,27.1667 44.3333,27.8333 44.5,28.5C 43.5401,30.4771 42.5401,32.4771 41.5,34.5C 40.1916,35.6256 38.8583,35.6256 37.5,34.5 Z"/></g>
</svg>
