<svg xmlns="http://www.w3.org/2000/svg" version="1.1" width="88px" height="88px" style="shape-rendering:geometricPrecision; text-rendering:geometricPrecision; image-rendering:optimizeQuality; fill-rule:evenodd; clip-rule:evenodd" xmlns:xlink="http://www.w3.org/1999/xlink">
<g><path style="opacity:0.961" fill="#fffefe" d="M 33.5,-0.5 C 40.1667,-0.5 46.8333,-0.5 53.5,-0.5C 71.1667,4.5 82.5,15.8333 87.5,33.5C 87.5,40.1667 87.5,46.8333 87.5,53.5C 82.5,71.1667 71.1667,82.5 53.5,87.5C 46.8333,87.5 40.1667,87.5 33.5,87.5C 15.8333,82.5 4.5,71.1667 -0.5,53.5C -0.5,46.8333 -0.5,40.1667 -0.5,33.5C 4.5,15.8333 15.8333,4.5 33.5,-0.5 Z"/></g>
<g><path style="opacity:1" fill="#ffcd34" d="M 64.5,61.5 C 62.3926,62.4682 60.0593,62.8016 57.5,62.5C 52.8899,53.8996 47.8899,45.5663 42.5,37.5C 38.3346,43.1583 34.6679,49.1583 31.5,55.5C 30.9569,55.56 30.6236,55.8933 30.5,56.5C 35.7921,57.4948 41.1254,57.8282 46.5,57.5C 47.6737,58.5137 48.3404,59.847 48.5,61.5C 39.1667,62.8333 29.8333,62.8333 20.5,61.5C 27.5848,48.9935 34.9181,36.6602 42.5,24.5C 50.0819,36.6602 57.4152,48.9935 64.5,61.5 Z"/></g>
<g><path style="opacity:1" fill="#ffe288" d="M 31.5,55.5 C 36.5,56.1667 41.5,56.8333 46.5,57.5C 41.1254,57.8282 35.7921,57.4948 30.5,56.5C 30.6236,55.8933 30.9569,55.56 31.5,55.5 Z"/></g>
<g><path style="opacity:1" fill="#ffdf7b" d="M 20.5,61.5 C 29.8333,62.8333 39.1667,62.8333 48.5,61.5C 49.0431,61.56 49.3764,61.8933 49.5,62.5C 39.5,63.8333 29.5,63.8333 19.5,62.5C 19.6236,61.8933 19.9569,61.56 20.5,61.5 Z"/></g>
<g><path style="opacity:1" fill="#ffe080" d="M 64.5,61.5 C 65.0431,61.56 65.3764,61.8933 65.5,62.5C 62.6908,63.8003 60.0241,63.8003 57.5,62.5C 60.0593,62.8016 62.3926,62.4682 64.5,61.5 Z"/></g>
</svg>
