<svg version="1.0" xmlns="http://www.w3.org/2000/svg"
 width="88.000000pt" height="88.000000pt" viewBox="0 0 88.000000 88.000000"
 preserveAspectRatio="xMidYMid meet">

<g transform="translate(0.000000,88.000000) scale(0.100000,-0.100000)"
fill="#000000" stroke="none">
<path d="M299 617 c-28 -21 -32 -54 -10 -76 26 -26 46 -26 71 -1 11 11 20 27
20 35 0 18 -35 55 -52 55 -7 0 -20 -6 -29 -13z"/>
<path d="M290 340 c-27 -27 -25 -46 5 -75 88 -81 235 -82 323 -2 38 35 24 87
-25 87 -12 0 -39 -12 -60 -26 -50 -34 -116 -30 -163 9 -38 32 -53 34 -80 7z"/>
</g>
</svg>
