<svg xmlns="http://www.w3.org/2000/svg" version="1.1" width="88px" height="88px" style="shape-rendering:geometricPrecision; text-rendering:geometricPrecision; image-rendering:optimizeQuality; fill-rule:evenodd; clip-rule:evenodd" xmlns:xlink="http://www.w3.org/1999/xlink">
<g><path style="opacity:1" fill="#5967ec" d="M -0.5,-0.5 C 28.8333,-0.5 58.1667,-0.5 87.5,-0.5C 87.5,2.16667 87.5,4.83333 87.5,7.5C 58.1667,7.5 28.8333,7.5 -0.5,7.5C -0.5,4.83333 -0.5,2.16667 -0.5,-0.5 Z"/></g>
<g><path style="opacity:1" fill="#5462e1" d="M -0.5,7.5 C 28.8333,7.5 58.1667,7.5 87.5,7.5C 87.5,11.1667 87.5,14.8333 87.5,18.5C 72.724,19.0344 58.0574,18.0344 43.5,15.5C 28.9478,18.0343 14.2812,19.0343 -0.5,18.5C -0.5,14.8333 -0.5,11.1667 -0.5,7.5 Z"/></g>
<g><path style="opacity:1" fill="#4c59d1" d="M 87.5,18.5 C 87.5,22.1667 87.5,25.8333 87.5,29.5C 83.3468,29.8079 78.8468,30.1413 74,30.5C 68.3812,27.2742 62.5478,24.4409 56.5,22C 48.8039,20.1387 41.1373,20.1387 33.5,22C 28.1898,25.6339 22.8564,29.3005 17.5,33C 11.5771,34.3041 5.57706,34.8041 -0.5,34.5C -0.5,29.1667 -0.5,23.8333 -0.5,18.5C 14.2812,19.0343 28.9478,18.0343 43.5,15.5C 58.0574,18.0344 72.724,19.0344 87.5,18.5 Z"/></g>
<g><path style="opacity:1" fill="#444fc0" d="M 87.5,29.5 C 87.5,36.5 87.5,43.5 87.5,50.5C 83.1539,50.6657 78.8206,50.499 74.5,50C 73,48.5 71.5,47 70,45.5C 68.7047,41.1783 66.8713,37.845 64.5,35.5C 64.1667,35.5 63.8333,35.5 63.5,35.5C 62.2768,31.9505 60.2768,28.9505 57.5,26.5C 47.4436,19.5495 37.6103,19.8828 28,27.5C 27.4209,28.9285 27.5876,30.2618 28.5,31.5C 27.6618,31.8417 27.3284,32.5084 27.5,33.5C 25.1707,31.9976 23.8373,32.6643 23.5,35.5C 22.6554,36.6715 21.9887,38.0048 21.5,39.5C 21.5,39.8333 21.5,40.1667 21.5,40.5C 19.9137,42.0808 18.9137,44.0808 18.5,46.5C 16.6641,47.919 14.6641,49.0857 12.5,50C 8.17944,50.499 3.84611,50.6657 -0.5,50.5C -0.5,45.1667 -0.5,39.8333 -0.5,34.5C 5.57706,34.8041 11.5771,34.3041 17.5,33C 22.8564,29.3005 28.1898,25.6339 33.5,22C 41.1373,20.1387 48.8039,20.1387 56.5,22C 62.5478,24.4409 68.3812,27.2742 74,30.5C 78.8468,30.1413 83.3468,29.8079 87.5,29.5 Z"/></g>
<g><path style="opacity:1" fill="#e0e2f0" d="M 57.5,26.5 C 57.5858,27.4959 57.2524,28.3292 56.5,29C 49.7205,31.8027 43.3872,35.3027 37.5,39.5C 34.5,36.8333 31.5,34.1667 28.5,31.5C 27.5876,30.2618 27.4209,28.9285 28,27.5C 37.6103,19.8828 47.4436,19.5495 57.5,26.5 Z"/></g>
<g><path style="opacity:1" fill="#ced0e5" d="M 57.5,26.5 C 60.2768,28.9505 62.2768,31.9505 63.5,35.5C 63.6309,36.3764 63.2975,37.0431 62.5,37.5C 56.4359,40.5321 50.4359,43.5321 44.5,46.5C 41.8333,44.5 39.5,42.1667 37.5,39.5C 43.3872,35.3027 49.7205,31.8027 56.5,29C 57.2524,28.3292 57.5858,27.4959 57.5,26.5 Z"/></g>
<g><path style="opacity:1" fill="#cfd0e9" d="M 27.5,33.5 C 30.8333,37.1667 34.1667,40.8333 37.5,44.5C 37.5,45.8333 36.8333,46.5 35.5,46.5C 31.5,42.8333 27.5,39.1667 23.5,35.5C 23.8373,32.6643 25.1707,31.9976 27.5,33.5 Z"/></g>
<g><path style="opacity:1" fill="#3640a4" d="M 21.5,40.5 C 21.7329,42.0618 22.3995,43.3951 23.5,44.5C 23.5198,46.143 22.8532,47.4763 21.5,48.5C 21.6236,49.1067 21.9569,49.44 22.5,49.5C 23.5758,52.6484 24.9091,55.6484 26.5,58.5C 28.737,62.5741 31.9036,65.9074 36,68.5C 37.5843,67.1387 39.4176,66.472 41.5,66.5C 41.5,67.5 41.5,68.5 41.5,69.5C 27.906,70.024 13.906,70.3573 -0.5,70.5C -0.5,63.8333 -0.5,57.1667 -0.5,50.5C 3.84611,50.6657 8.17944,50.499 12.5,50C 14.6641,49.0857 16.6641,47.919 18.5,46.5C 18.9137,44.0808 19.9137,42.0808 21.5,40.5 Z"/></g>
<g><path style="opacity:1" fill="#aaadd4" d="M 37.5,44.5 C 43.8922,49.89 49.5588,55.89 54.5,62.5C 53.5768,63.3029 52.5768,63.4696 51.5,63C 45.9637,57.6314 40.6303,52.1314 35.5,46.5C 36.8333,46.5 37.5,45.8333 37.5,44.5 Z"/></g>
<g><path style="opacity:1" fill="#c5c8e2" d="M 21.5,39.5 C 30.7589,47.0897 39.4255,55.4231 47.5,64.5C 46.635,65.5827 45.635,65.7494 44.5,65C 37.6315,57.9641 30.6315,51.1307 23.5,44.5C 22.3995,43.3951 21.7329,42.0618 21.5,40.5C 21.5,40.1667 21.5,39.8333 21.5,39.5 Z"/></g>
<g><path style="opacity:1" fill="#c0c2df" d="M 26.5,58.5 C 24.9091,55.6484 23.5758,52.6484 22.5,49.5C 27.9694,53.4333 33.3027,58.2666 38.5,64C 33.9295,63.5502 29.9295,61.7169 26.5,58.5 Z"/></g>
<g><path style="opacity:1" fill="#343d9b" d="M 23.5,35.5 C 27.5,39.1667 31.5,42.8333 35.5,46.5C 40.6303,52.1314 45.9637,57.6314 51.5,63C 52.5768,63.4696 53.5768,63.3029 54.5,62.5C 54.5,63.5 54.5,64.5 54.5,65.5C 51.4503,64.9232 49.4503,66.0899 48.5,69C 52.1667,70 55.8333,71 59.5,72C 68.8274,72.4998 78.1607,72.6665 87.5,72.5C 87.5,73.8333 87.5,75.1667 87.5,76.5C 58.1867,75.49 28.8533,75.49 -0.5,76.5C -0.5,74.5 -0.5,72.5 -0.5,70.5C 13.906,70.3573 27.906,70.024 41.5,69.5C 41.5,68.5 41.5,67.5 41.5,66.5C 39.4176,66.472 37.5843,67.1387 36,68.5C 31.9036,65.9074 28.737,62.5741 26.5,58.5C 29.9295,61.7169 33.9295,63.5502 38.5,64C 33.3027,58.2666 27.9694,53.4333 22.5,49.5C 21.9569,49.44 21.6236,49.1067 21.5,48.5C 22.8532,47.4763 23.5198,46.143 23.5,44.5C 30.6315,51.1307 37.6315,57.9641 44.5,65C 45.635,65.7494 46.635,65.5827 47.5,64.5C 39.4255,55.4231 30.7589,47.0897 21.5,39.5C 21.9887,38.0048 22.6554,36.6715 23.5,35.5 Z"/></g>
<g><path style="opacity:1" fill="#353ea2" d="M 28.5,31.5 C 31.5,34.1667 34.5,36.8333 37.5,39.5C 39.5,42.1667 41.8333,44.5 44.5,46.5C 48.2964,50.7978 52.2964,54.9644 56.5,59C 57.5,59.6667 58.5,59.6667 59.5,59C 65.2395,52.0453 66.9062,44.212 64.5,35.5C 66.8713,37.845 68.7047,41.1783 70,45.5C 71.5,47 73,48.5 74.5,50C 78.8206,50.499 83.1539,50.6657 87.5,50.5C 87.5,57.8333 87.5,65.1667 87.5,72.5C 78.1607,72.6665 68.8274,72.4998 59.5,72C 55.8333,71 52.1667,70 48.5,69C 49.4503,66.0899 51.4503,64.9232 54.5,65.5C 54.5,64.5 54.5,63.5 54.5,62.5C 49.5588,55.89 43.8922,49.89 37.5,44.5C 34.1667,40.8333 30.8333,37.1667 27.5,33.5C 27.3284,32.5084 27.6618,31.8417 28.5,31.5 Z"/></g>
<g><path style="opacity:1" fill="#b7bad8" d="M 63.5,35.5 C 63.8333,35.5 64.1667,35.5 64.5,35.5C 66.9062,44.212 65.2395,52.0453 59.5,59C 58.5,59.6667 57.5,59.6667 56.5,59C 52.2964,54.9644 48.2964,50.7978 44.5,46.5C 50.4359,43.5321 56.4359,40.5321 62.5,37.5C 63.2975,37.0431 63.6309,36.3764 63.5,35.5 Z"/></g>
<g><path style="opacity:1" fill="#2c348f" d="M 87.5,76.5 C 87.5,80.1667 87.5,83.8333 87.5,87.5C 58.1667,87.5 28.8333,87.5 -0.5,87.5C -0.5,83.8333 -0.5,80.1667 -0.5,76.5C 28.8533,75.49 58.1867,75.49 87.5,76.5 Z"/></g>
</svg>
