<svg xmlns="http://www.w3.org/2000/svg" version="1.1" width="88px" height="88px" style="shape-rendering:geometricPrecision; text-rendering:geometricPrecision; image-rendering:optimizeQuality; fill-rule:evenodd; clip-rule:evenodd" xmlns:xlink="http://www.w3.org/1999/xlink">
<g><path style="opacity:0.96" fill="#0375fe" d="M 62.5,72.5 C 62.5,71.8333 62.5,71.1667 62.5,70.5C 65.7281,67.931 67.7281,64.5977 68.5,60.5C 65.7224,60.9783 63.7224,59.9783 62.5,57.5C 63.3917,54.7163 64.5584,52.0496 66,49.5C 66.7772,46.5706 66.6105,43.7372 65.5,41C 63.5,40.3333 61.5,40.3333 59.5,41C 57.3192,42.8403 54.8192,44.0069 52,44.5C 46.1621,43.1916 40.3288,43.1916 34.5,44.5C 31.4223,42.6313 28.089,41.298 24.5,40.5C 21.9345,40.8991 20.6012,42.3991 20.5,45C 21.9296,49.1226 23.2629,53.2892 24.5,57.5C 24.1667,58.1667 23.8333,58.8333 23.5,59.5C 21.7749,60.0149 20.1083,60.6816 18.5,61.5C 19.7426,65.4024 22.076,68.4024 25.5,70.5C 25.5,71.1667 25.5,71.8333 25.5,72.5C 18.813,72.3127 14.6463,68.9793 13,62.5C 12.3333,49.1667 12.3333,35.8333 13,22.5C 14.8333,19.3333 17.3333,16.8333 20.5,15C 35.8333,14.3333 51.1667,14.3333 66.5,15C 71.0986,16.5981 73.9319,19.7647 75,24.5C 75.9243,37.8896 75.591,51.223 74,64.5C 71.6427,69.367 67.8093,72.0337 62.5,72.5 Z"/></g>
<g><path style="opacity:1" fill="#f4f7fb" d="M 62.5,70.5 C 60.9753,62.1531 55.9753,58.6531 47.5,60C 45.2031,61.2633 44.3698,63.0966 45,65.5C 46.7448,66.9557 48.5781,68.289 50.5,69.5C 50.9943,71.0255 51.661,72.3588 52.5,73.5C 50.9724,74.3092 49.3057,74.9759 47.5,75.5C 44.9227,71.5327 42.2561,71.5327 39.5,75.5C 38.2921,74.7659 36.9587,74.4326 35.5,74.5C 35.5352,70.4528 37.5352,67.7861 41.5,66.5C 43.1475,63.5462 42.4808,61.3795 39.5,60C 31.2979,58.6948 26.6313,62.1948 25.5,70.5C 22.076,68.4024 19.7426,65.4024 18.5,61.5C 20.1083,60.6816 21.7749,60.0149 23.5,59.5C 23.8333,58.8333 24.1667,58.1667 24.5,57.5C 23.2629,53.2892 21.9296,49.1226 20.5,45C 20.6012,42.3991 21.9345,40.8991 24.5,40.5C 28.089,41.298 31.4223,42.6313 34.5,44.5C 40.3288,43.1916 46.1621,43.1916 52,44.5C 54.8192,44.0069 57.3192,42.8403 59.5,41C 61.5,40.3333 63.5,40.3333 65.5,41C 66.6105,43.7372 66.7772,46.5706 66,49.5C 64.5584,52.0496 63.3917,54.7163 62.5,57.5C 63.7224,59.9783 65.7224,60.9783 68.5,60.5C 67.7281,64.5977 65.7281,67.931 62.5,70.5 Z"/></g>
<g><path style="opacity:1" fill="#13396e" d="M 23.5,43.5 C 26.5641,43.1437 29.2307,43.9771 31.5,46C 29.04,47.4578 26.8734,49.2911 25,51.5C 24.1785,48.8832 23.6785,46.2165 23.5,43.5 Z"/></g>
<g><path style="opacity:1" fill="#193c70" d="M 58.5,43.5 C 60.1667,43.5 61.8333,43.5 63.5,43.5C 63.7525,46.3198 63.2525,48.9865 62,51.5C 60.1266,49.2911 57.96,47.4578 55.5,46C 56.5707,45.1482 57.5707,44.3149 58.5,43.5 Z"/></g>
<g><path style="opacity:0.963" fill="#0a346a" d="M 35.5,74.5 C 32.2089,73.7428 28.8756,73.0761 25.5,72.5C 25.5,71.8333 25.5,71.1667 25.5,70.5C 26.6313,62.1948 31.2979,58.6948 39.5,60C 42.4808,61.3795 43.1475,63.5462 41.5,66.5C 37.5352,67.7861 35.5352,70.4528 35.5,74.5 Z"/></g>
<g><path style="opacity:0.959" fill="#11376c" d="M 62.5,70.5 C 62.5,71.1667 62.5,71.8333 62.5,72.5C 59.2139,73.2071 55.8806,73.5405 52.5,73.5C 51.661,72.3588 50.9943,71.0255 50.5,69.5C 48.5781,68.289 46.7448,66.9557 45,65.5C 44.3698,63.0966 45.2031,61.2633 47.5,60C 55.9753,58.6531 60.9753,62.1531 62.5,70.5 Z"/></g>
<g><path style="opacity:1" fill="#fefeff" d="M 49.5,63.5 C 51.337,63.6395 51.6704,64.3061 50.5,65.5C 49.7025,65.0431 49.3691,64.3764 49.5,63.5 Z"/></g>
<g><path style="opacity:1" fill="#dae0e8" d="M 35.5,62.5 C 39.31,63.7542 39.31,64.7542 35.5,65.5C 35.5,64.5 35.5,63.5 35.5,62.5 Z"/></g>
<g><path style="opacity:0.75" fill="#073369" d="M 47.5,75.5 C 44.9102,78.0595 42.2435,78.0595 39.5,75.5C 42.2561,71.5327 44.9227,71.5327 47.5,75.5 Z"/></g>
</svg>
