<svg xmlns="http://www.w3.org/2000/svg" fill="none" viewBox="0 0 165 65"><path fill="#000" d="M156.107 13.877h-31.169v9.907h9.834v27.703h11.501V23.784h9.834v-9.907zM121.968 13.877h-11.88l-6.468 9.659-6.089-9.66H84.942l12.227 18.971-12.045 18.64h12.292l6.039-9.56 6.122 9.56h12.606L109.89 32.5l12.078-18.623zM33.94 32.219l.017.314-12.804-18.656H10.379v37.61h10.824V31.69l13.53 19.797h10.032v-37.61H33.94v18.342zM50.572 13.877v9.477h13.712L49.78 51.487h31.268v-9.543h-14.47l14.784-28.067h-30.79z"/></svg>