<svg xmlns="http://www.w3.org/2000/svg" version="1.1" width="88px" height="88px" style="shape-rendering:geometricPrecision; text-rendering:geometricPrecision; image-rendering:optimizeQuality; fill-rule:evenodd; clip-rule:evenodd" xmlns:xlink="http://www.w3.org/1999/xlink">
<g><path style="opacity:1" fill="#010101" d="M -0.5,-0.5 C 28.8333,-0.5 58.1667,-0.5 87.5,-0.5C 87.5,28.8333 87.5,58.1667 87.5,87.5C 58.1667,87.5 28.8333,87.5 -0.5,87.5C -0.5,58.1667 -0.5,28.8333 -0.5,-0.5 Z"/></g>
<g><path style="opacity:1" fill="#f8f8f8" d="M 38.5,15.5 C 42.8333,15.5 47.1667,15.5 51.5,15.5C 50.4259,19.9638 49.0926,24.2971 47.5,28.5C 51.1817,28.3347 54.8484,28.5014 58.5,29C 62.3333,35.5 66.1667,42 70,48.5C 71.373,50.6954 71.7063,53.0288 71,55.5C 68.9586,59.0838 66.792,62.5838 64.5,66C 55.1667,66.6667 45.8333,66.6667 36.5,66C 35.0506,62.727 33.0506,59.8937 30.5,57.5C 27.9494,59.8937 25.9494,62.727 24.5,66C 23.0039,66.5074 21.8373,66.0074 21,64.5C 19.9196,62.0038 18.5862,59.6705 17,57.5C 16.3333,55.5 16.3333,53.5 17,51.5C 23.9264,39.3069 31.093,27.3069 38.5,15.5 Z"/></g>
<g><path style="opacity:1" fill="#080808" d="M 43.5,32.5 C 44.4959,32.4142 45.3292,32.7476 46,33.5C 49.726,39.6187 52.8927,45.952 55.5,52.5C 48.1667,52.5 40.8333,52.5 33.5,52.5C 36.2873,45.5921 39.6206,38.9254 43.5,32.5 Z"/></g>
</svg>
