<svg xmlns="http://www.w3.org/2000/svg" version="1.1" width="48px" height="48px" style="shape-rendering:geometricPrecision; text-rendering:geometricPrecision; image-rendering:optimizeQuality; fill-rule:evenodd; clip-rule:evenodd" xmlns:xlink="http://www.w3.org/1999/xlink">
<g><path style="opacity:0.999" fill="#fcfcfc" d="M -0.5,-0.5 C 15.5,-0.5 31.5,-0.5 47.5,-0.5C 47.5,15.5 47.5,31.5 47.5,47.5C 31.5,47.5 15.5,47.5 -0.5,47.5C -0.5,31.5 -0.5,15.5 -0.5,-0.5 Z"/></g>
<g><path style="opacity:1" fill="#1b1b1b" d="M 24.5,23.5 C 25.9778,23.238 27.3112,23.5713 28.5,24.5C 27.8333,24.8333 27.1667,25.1667 26.5,25.5C 25.2867,25.2528 24.62,24.5862 24.5,23.5 Z"/></g>
<g><path style="opacity:1" fill="#141416" d="M 35.5,13.5 C 35.6663,20.175 35.4996,26.8417 35,33.5C 34.6667,27.8333 34.3333,22.1667 34,16.5C 33.7599,20.2519 33.2599,23.9186 32.5,27.5C 32.0707,26.0473 31.904,24.3806 32,22.5C 31.0975,21.2986 29.9308,20.4652 28.5,20C 30.7032,17.6278 33.0365,15.4611 35.5,13.5 Z"/></g>
<g><path style="opacity:1" fill="#3a3a3a" d="M 24.5,28.5 C 26.288,28.2148 27.9547,28.5481 29.5,29.5C 28.6667,29.8333 27.8333,30.1667 27,30.5C 25.6244,30.3158 24.7911,29.6491 24.5,28.5 Z"/></g>
<g><path style="opacity:1" fill="#a9a9a9" d="M 20.5,27.5 C 20.56,26.9569 20.8933,26.6236 21.5,26.5C 22.4656,28.396 22.7989,30.396 22.5,32.5C 25.1667,32.5 27.8333,32.5 30.5,32.5C 30.5,32.8333 30.5,33.1667 30.5,33.5C 27.5,33.5 24.5,33.5 21.5,33.5C 21.7947,31.2646 21.4614,29.2646 20.5,27.5 Z"/></g>
<g><path style="opacity:1" fill="#181818" d="M 20.5,27.5 C 21.4614,29.2646 21.7947,31.2646 21.5,33.5C 24.5,33.5 27.5,33.5 30.5,33.5C 32.2646,34.4614 34.2646,34.7947 36.5,34.5C 28.6775,35.6561 20.6775,35.8228 12.5,35C 15.0625,32.267 17.7291,29.767 20.5,27.5 Z"/></g>
<g><path style="opacity:1" fill="#3f3f41" d="M 36.5,34.5 C 34.2646,34.7947 32.2646,34.4614 30.5,33.5C 30.5,33.1667 30.5,32.8333 30.5,32.5C 32.2132,31.3646 32.8799,29.698 32.5,27.5C 33.2599,23.9186 33.7599,20.2519 34,16.5C 34.3333,22.1667 34.6667,27.8333 35,33.5C 35.4996,26.8417 35.6663,20.175 35.5,13.5C 36.4993,19.7424 36.8326,26.7424 36.5,34.5 Z"/></g>
</svg>
